<?xml version="1.0" encoding="utf-8"?>
<!-- Generator: Adobe Illustrator 23.0.4, SVG Export Plug-In . SVG Version: 6.00 Build 0)  -->
<svg version="1.1" id="LOGO" xmlns="http://www.w3.org/2000/svg" xmlns:xlink="http://www.w3.org/1999/xlink" x="0px" y="0px"
	 viewBox="0 0 566.9 283.5" style="enable-background:new 0 0 566.9 283.5;" xml:space="preserve">
<style type="text/css">
	.st0{clip-path:url(#SVGID_2_);fill:#2C5564;}
	.st1{clip-path:url(#SVGID_2_);fill:#22B7B4;}
	.st2{fill:#2B5564;}
	.st3{fill:#26B8B6;}
</style>
<g>
	<g>
		<defs>
			<rect id="SVGID_1_" x="8.5" y="44" width="555.4" height="209.3"/>
		</defs>
		<clipPath id="SVGID_2_">
			<use xlink:href="#SVGID_1_"  style="overflow:visible;"/>
		</clipPath>
		<polygon class="st0" points="29.9,62.4 29.9,81.7 100.4,81.7 100.4,100.1 29.9,100.1 29.9,129.1 8.5,129.1 8.5,44 110,44 
			110,62.4 		"/>
		<polygon class="st0" points="122.2,129.1 122.2,44 143.6,44 143.6,110.8 219.1,110.8 219.1,129.1 		"/>
		<polygon class="st0" points="230.6,129.1 230.6,44 333.1,44 333.1,62.4 252,62.4 252,77.7 323.4,77.7 323.4,94.2 252,94.2 
			252,110.8 336.3,110.8 336.3,129.1 		"/>
		<polygon class="st0" points="347.9,129.1 347.9,44 450.4,44 450.4,62.4 369.3,62.4 369.3,77.7 440.6,77.7 440.6,94.2 369.3,94.2 
			369.3,110.8 453.5,110.8 453.5,129.1 		"/>
		<polygon class="st0" points="521,62.4 521,129.1 499.7,129.1 499.7,62.4 461.4,62.4 461.4,44 559.3,44 559.3,62.4 		"/>
		<path class="st1" d="M230.1,562.5c0-5.3,4.4-9.5,9.5-9.5c5.3,0,9.5,4.2,9.5,9.5c0,5.3-4.3,9.5-9.5,9.5
			C234.5,572,230.1,567.8,230.1,562.5 M231.7,580.9h15.9v60.4h-15.9V580.9z"/>
		<path class="st1" d="M332.9,629.2l6.1,7.1l-12.4,10.1l-6.6-7.9c-5.9,2.8-12.6,4.3-19.9,4.3c-25.1,0-43.5-18-43.5-43.2
			c0-25.1,18.4-43.2,43.5-43.2c25.3,0,43.7,18,43.7,43.2C343.8,611.4,339.8,621.7,332.9,629.2 M308.9,625.6l-9.5-11.1l12.4-10
			l9.5,11.1c2.8-4.4,4.3-9.9,4.3-15.9c0-15.6-10-27.4-25.4-27.4c-15.4,0-25.3,11.8-25.3,27.4c0,15.5,9.9,27.4,25.3,27.4
			C303.2,627.1,306.2,626.6,308.9,625.6"/>
		<path class="st0" d="M356.7,617.8c5.8,6,14.9,9.5,23,9.5c10.1,0,15.8-4.4,15.8-10.8c0-6.8-5.1-9.9-16.8-9.9c-3.5,0-9.1,0-10.4,0.1
			v-15.5c1.5,0.1,7.1,0.1,10.4,0.1c9.3,0,15.4-3,15.4-9.3c0-6.6-6.8-10-15.5-10c-8.1,0-15.4,3.1-21.3,8.8l-8.8-11
			c6.8-7.6,17.3-13.3,31.9-13.3c19.5,0,31.5,8.8,31.5,22.6c0,10.5-9,17.4-18.3,19c8.5,0.9,19.5,7.5,19.5,20
			c0,14.4-12.9,24.5-32.9,24.5c-15.4,0-26.8-5.9-32.9-13.4L356.7,617.8z"/>
		<path class="st0" d="M458.4,556.7c10.1,0,18.6,3.5,24.6,8.6l-8,13.4c-4.5-4.3-9.3-6.6-16.6-6.6c-12.6,0-20.9,10.9-20.9,24.1
			c0,0.6,0,1.3,0.1,1.8c3.9-5.6,12.3-10.6,21.4-10.6c15,0,28.4,9.1,28.4,26.9c0,16.3-12.9,28.6-31.9,28.6c-25.4,0-36-19.5-36-43
			C419.5,574.5,433.7,556.7,458.4,556.7 M453.8,602.1c-6.3,0-12.3,3.1-16.3,8c0.8,8,5.3,17.3,17,17.3c9.6,0,14.8-6.5,14.8-12.4
			C469.4,605.9,462,602.1,453.8,602.1"/>
		<path class="st0" d="M526.9,556.7c23.8,0,34.5,21.5,34.5,43c0,21.5-10.8,43.2-34.5,43.2c-23.9,0-34.5-21.6-34.5-43.2
			C492.4,578.2,503,556.7,526.9,556.7 M526.9,572.4c-12,0-16.5,11.9-16.5,27.3s4.5,27.4,16.5,27.4c11.9,0,16.4-12,16.4-27.4
			S538.8,572.4,526.9,572.4"/>
		<polygon class="st0" points="34.4,466.7 34.4,486.1 104.9,486.1 104.9,504.4 34.4,504.4 34.4,533.5 13,533.5 13,448.4 
			114.5,448.4 114.5,466.7 		"/>
		<polygon class="st0" points="126.7,533.5 126.7,448.4 148.1,448.4 148.1,515.1 223.6,515.1 223.6,533.5 		"/>
		<polygon class="st0" points="235.1,533.5 235.1,448.4 337.7,448.4 337.7,466.7 256.6,466.7 256.6,482 327.9,482 327.9,498.6 
			256.6,498.6 256.6,515.1 340.8,515.1 340.8,533.5 		"/>
		<polygon class="st0" points="352.4,533.5 352.4,448.4 454.9,448.4 454.9,466.7 373.8,466.7 373.8,482 445.2,482 445.2,498.6 
			373.8,498.6 373.8,515.1 458,515.1 458,533.5 		"/>
		<polygon class="st0" points="525.5,466.7 525.5,533.5 504.3,533.5 504.3,466.7 465.9,466.7 465.9,448.4 563.8,448.4 563.8,466.7 
					"/>
	</g>
	<path class="st2" d="M212.9,157c0-5.1,4.3-9.3,9.3-9.3c5.1,0,9.3,4.2,9.3,9.3c0,5.1-4.2,9.3-9.3,9.3
		C217.2,166.3,212.9,162.2,212.9,157 M214.5,175H230v59.1h-15.5V175z"/>
	<path class="st2" d="M313.5,222.2l6,7l-12.1,9.9l-6.5-7.7c-5.8,2.7-12.4,4.2-19.5,4.2c-24.6,0-42.6-17.6-42.6-42.2
		c0-24.6,18-42.2,42.6-42.2c24.7,0,42.7,17.6,42.7,42.2C324.1,204.9,320.2,214.9,313.5,222.2 M290,218.7l-9.3-10.9l12.1-9.8
		l9.3,10.9c2.7-4.3,4.2-9.7,4.2-15.5c0-15.3-9.8-26.8-24.8-26.8c-15.1,0-24.7,11.5-24.7,26.8c0,15.2,9.7,26.8,24.7,26.8
		C284.5,220.2,287.4,219.7,290,218.7z"/>
	<path class="st3" d="M336.7,211.1c5.6,5.9,14.6,9.3,22.5,9.3c9.9,0,15.4-4.3,15.4-10.5c0-6.6-5-9.7-16.4-9.7c-3.4,0-8.9,0-10.2,0.1
		v-15.2c1.5,0.1,7,0.1,10.2,0.1c9.1,0,15-2.9,15-9.1c0-6.5-6.6-9.8-15.2-9.8c-8,0-15,3.1-20.8,8.6l-8.6-10.8
		c6.6-7.5,16.9-13,31.2-13c19.1,0,30.8,8.6,30.8,22.1c0,10.3-8.8,17-17.9,18.6c8.3,0.9,19.1,7.3,19.1,19.6c0,14.1-12.6,24-32.2,24
		c-15,0-26.2-5.8-32.2-13.1L336.7,211.1"/>
	<path class="st3" d="M436.2,151.3c9.9,0,18.2,3.4,24.1,8.4l-7.8,13.1c-4.4-4.2-9.1-6.5-16.3-6.5c-12.4,0-20.4,10.6-20.4,23.6
		c0,0.6,0,1.2,0.1,1.7c3.8-5.5,12-10.4,20.9-10.4c14.7,0,27.8,8.9,27.8,26.3c0,15.9-12.6,28-31.2,28c-24.8,0-35.2-19.1-35.2-42.1
		C398.1,168.8,412.1,151.3,436.2,151.3 M431.8,195.7c-6.1,0-12,3.1-15.9,7.8c0.7,7.8,5.1,16.9,16.6,16.9c9.4,0,14.4-6.4,14.4-12.1
		C447,199.5,439.7,195.7,431.8,195.7z"/>
	<path class="st3" d="M503.3,151.3c23.2,0,33.8,21,33.8,42.1s-10.5,42.2-33.8,42.2c-23.4,0-33.8-21.2-33.8-42.2
		S479.9,151.3,503.3,151.3 M503.3,166.7c-11.8,0-16.2,11.6-16.2,26.7c0,15,4.4,26.8,16.2,26.8c11.6,0,16-11.7,16-26.8
		C519.3,178.3,514.9,166.7,503.3,166.7z"/>
</g>
</svg>
