<?xml version="1.0" encoding="utf-8"?>
<!-- Generator: Adobe Illustrator 23.0.4, SVG Export Plug-In . SVG Version: 6.00 Build 0)  -->
<svg version="1.1" id="LOGO" xmlns="http://www.w3.org/2000/svg" xmlns:xlink="http://www.w3.org/1999/xlink" x="0px" y="0px"
	 viewBox="0 0 850.4 283.5" style="enable-background:new 0 0 850.4 283.5;" xml:space="preserve">
<style type="text/css">
	.st0{fill:#2B5564;}
	.st1{fill:#26B8B6;}
</style>
<g>
	<polyline class="st0" points="40.6,63.2 40.6,82.7 111.7,82.7 111.7,101.2 40.6,101.2 40.6,130.5 19,130.5 19,44.7 121.4,44.7 
		121.4,63.2 40.6,63.2 	"/>
	<path class="st0" d="M241.9,87.6c0,6.2-1.3,12.1-3.9,17.6c-2.6,5.5-6.4,10.4-11.3,14.5c-4.9,4.2-11,7.5-18.1,9.9
		c-7.1,2.5-15.2,3.7-24.1,3.7c-9,0-17-1.2-24.1-3.7c-7.1-2.5-13.1-5.8-18.1-9.9c-4.9-4.2-8.7-9-11.3-14.5
		c-2.6-5.5-3.9-11.4-3.9-17.6c0-6.2,1.3-12.1,3.9-17.6c2.6-5.5,6.4-10.4,11.3-14.5c4.9-4.2,11-7.5,18.1-9.9
		c7.1-2.5,15.2-3.7,24.1-3.7c9,0,17,1.2,24.1,3.7c7.1,2.5,13.1,5.8,18.1,9.9c4.9,4.2,8.7,9,11.3,14.5
		C240.6,75.5,241.9,81.4,241.9,87.6 M219.2,87.6c0-3.7-0.7-7.2-2.1-10.5c-1.4-3.3-3.6-6.2-6.5-8.8c-2.9-2.5-6.5-4.5-10.9-6
		c-4.4-1.5-9.5-2.2-15.3-2.2c-5.8,0-10.9,0.7-15.3,2.2c-4.4,1.5-8,3.5-10.9,6c-2.9,2.5-5.1,5.5-6.5,8.8c-1.4,3.3-2.1,6.8-2.1,10.5
		c0,3.7,0.7,7.2,2.1,10.5c1.4,3.3,3.6,6.2,6.5,8.8c2.9,2.5,6.5,4.5,10.9,6c4.4,1.5,9.5,2.2,15.3,2.2c5.8,0,10.9-0.7,15.3-2.2
		s8-3.5,10.9-6c2.9-2.5,5.1-5.5,6.5-8.8C218.5,94.8,219.2,91.3,219.2,87.6z"/>
	<path class="st0" d="M355,72.9c0,3.8-0.5,7.1-1.5,9.9c-1,2.9-2.3,5.3-3.9,7.4c-1.6,2.1-3.4,3.8-5.4,5.2c-2,1.4-4,2.5-6.1,3.3
		l15,31.7h-23l-13.7-29.3h-45v29.3h-21.6V44.7h77.1c2.3,0,5,0.4,8.3,1.2c3.2,0.8,6.3,2.3,9.3,4.4c2.9,2.1,5.4,4.9,7.5,8.6
		C354,62.5,355,67.2,355,72.9 M333.4,72.9c0-2-0.4-3.7-1.1-5c-0.7-1.3-1.6-2.2-2.7-2.9c-1.1-0.7-2.1-1.2-3.2-1.4
		c-1.1-0.2-2-0.4-2.6-0.4h-52.3v19.5h52.3c0.5,0,1.3-0.1,2.3-0.4c1.1-0.3,2.1-0.8,3.2-1.5c1.1-0.7,2.1-1.7,2.9-3
		C333,76.5,333.4,74.9,333.4,72.9z"/>
	<polyline class="st0" points="449.1,130.5 410.2,90.8 386.4,108.7 386.4,130.5 364.8,130.5 364.8,44.7 386.4,44.7 386.4,85.6 
		441.1,44.7 471.8,44.7 425.6,79.3 475.9,130.5 449.1,130.5 	"/>
	<polyline class="st1" points="480.2,130.5 480.2,44.7 501.7,44.7 501.7,112 577.8,112 577.8,130.5 480.2,130.5 	"/>
	<rect x="589.5" y="44.7" class="st1" width="21.6" height="85.8"/>
	<polyline class="st1" points="647.3,63.2 647.3,82.7 718.4,82.7 718.4,101.2 647.3,101.2 647.3,130.5 625.8,130.5 625.8,44.7 
		728.1,44.7 728.1,63.2 647.3,63.2 	"/>
	<polyline class="st1" points="796.8,63.2 796.8,130.5 775.3,130.5 775.3,63.2 736.7,63.2 736.7,44.7 835.4,44.7 835.4,63.2 
		796.8,63.2 	"/>
	<path class="st0" d="M488.4,158c0-5.1,4.3-9.3,9.3-9.3c5.1,0,9.3,4.2,9.3,9.3c0,5.1-4.2,9.3-9.3,9.3
		C492.7,167.3,488.4,163.1,488.4,158 M490,175.9h15.5V235H490V175.9z"/>
	<path class="st0" d="M589,223.2l6,7l-12.1,9.9l-6.5-7.7c-5.8,2.7-12.4,4.2-19.5,4.2c-24.6,0-42.6-17.6-42.6-42.2
		c0-24.6,18-42.2,42.6-42.2c24.7,0,42.7,17.6,42.7,42.2C599.7,205.8,595.8,215.8,589,223.2 M565.5,219.6l-9.3-10.9l12.1-9.8
		l9.3,10.9c2.7-4.3,4.2-9.7,4.2-15.5c0-15.3-9.8-26.8-24.8-26.8c-15.1,0-24.7,11.5-24.7,26.8c0,15.2,9.7,26.8,24.7,26.8
		C560,221.1,563,220.6,565.5,219.6z"/>
	<path class="st1" d="M612.3,212c5.6,5.9,14.6,9.3,22.5,9.3c9.9,0,15.4-4.3,15.4-10.5c0-6.6-5-9.7-16.4-9.7c-3.4,0-8.9,0-10.2,0.1
		v-15.2c1.5,0.1,7,0.1,10.2,0.1c9.1,0,15-2.9,15-9.1c0-6.5-6.6-9.8-15.2-9.8c-8,0-15,3.1-20.8,8.6l-8.6-10.8
		c6.6-7.5,16.9-13,31.2-13c19.1,0,30.8,8.6,30.8,22.1c0,10.3-8.8,17-17.9,18.6c8.3,0.9,19.1,7.3,19.1,19.6c0,14.1-12.6,24-32.2,24
		c-15,0-26.2-5.8-32.2-13.1L612.3,212"/>
	<path class="st1" d="M711.7,152.2c9.9,0,18.2,3.4,24.1,8.4l-7.8,13.1c-4.4-4.2-9.1-6.5-16.3-6.5c-12.4,0-20.4,10.6-20.4,23.6
		c0,0.6,0,1.2,0.1,1.7c3.8-5.5,12-10.4,20.9-10.4c14.7,0,27.8,8.9,27.8,26.3c0,15.9-12.6,28-31.2,28c-24.8,0-35.2-19.1-35.2-42.1
		C673.7,169.7,687.6,152.2,711.7,152.2 M707.3,196.6c-6.1,0-12,3.1-15.9,7.8c0.7,7.8,5.1,16.9,16.6,16.9c9.4,0,14.4-6.4,14.4-12.1
		C722.5,200.4,715.3,196.6,707.3,196.6z"/>
	<path class="st1" d="M778.8,152.2c23.2,0,33.8,21,33.8,42.1s-10.5,42.2-33.8,42.2c-23.4,0-33.8-21.2-33.8-42.2
		S755.4,152.2,778.8,152.2 M778.8,167.6c-11.8,0-16.2,11.6-16.2,26.7c0,15,4.4,26.8,16.2,26.8c11.6,0,16-11.7,16-26.8
		C794.8,179.3,790.4,167.6,778.8,167.6z"/>
</g>
</svg>
