<svg xmlns="http://www.w3.org/2000/svg" width="791" height="315" viewBox="0 0 791 315" version="1.1"><path d="M 681.822 41.934 C 682.101 44.858, 681.794 45.937, 680.577 46.306 C 679.277 46.701, 679.307 46.766, 680.730 46.640 C 681.969 46.531, 682.597 45.472, 682.823 43.115 C 683 41.262, 682.765 39.365, 682.299 38.899 C 681.833 38.433, 681.619 39.799, 681.822 41.934 M 102.150 42.167 C 102.067 44.183, 101.438 46.060, 100.750 46.338 C 99.771 46.733, 99.778 46.859, 100.781 46.921 C 102.480 47.026, 103.247 44.821, 102.724 41.334 C 102.359 38.896, 102.279 39.013, 102.150 42.167 M 108.373 42.423 C 108.456 44.984, 109.021 46.485, 110 46.749 C 111.023 47.024, 111.128 46.887, 110.331 46.317 C 109.689 45.858, 108.956 43.911, 108.704 41.991 C 108.265 38.647, 108.251 38.665, 108.373 42.423 M 147.035 40.934 C 145.787 43.267, 145.602 88.636, 146.837 89.400 C 147.298 89.684, 149.333 88.220, 151.358 86.145 L 155.042 82.373 154.749 61.436 L 154.457 40.500 154.229 61.554 L 154 82.608 150.500 86 L 147 89.392 147 66.130 C 147 52.008, 147.407 42.109, 148.035 40.934 C 148.605 39.870, 148.845 39, 148.570 39 C 148.295 39, 147.605 39.870, 147.035 40.934 M 194.750 39.998 C 195.681 41.042, 196 47.934, 196 67 C 196 86.066, 195.681 92.958, 194.750 94.002 C 193.687 95.194, 193.761 95.206, 195.250 94.079 C 196.837 92.878, 197 90.358, 197 67 C 197 43.642, 196.837 41.122, 195.250 39.921 C 193.761 38.794, 193.687 38.806, 194.750 39.998 M 214.505 41.352 C 213.203 43.340, 213.006 47.533, 213.232 68.480 C 213.488 92.181, 213.589 93.316, 215.546 94.615 C 217.291 95.773, 217.918 95.746, 219.796 94.430 C 221.975 92.904, 222 92.583, 222 65.943 C 222 51.124, 221.662 39, 221.250 38.999 C 220.838 38.999, 220.627 51.032, 220.783 65.739 C 221.037 89.772, 220.896 92.603, 219.395 93.701 C 218.229 94.553, 217.160 94.621, 215.862 93.926 C 214.122 92.995, 214 91.289, 214 67.965 C 214 44.333, 214.107 42.893, 216 41 C 217.100 39.900, 217.560 39, 217.023 39 C 216.486 39, 215.353 40.058, 214.505 41.352 M 249.595 39.846 C 248.898 40.974, 248.698 83.032, 249.387 83.720 C 249.683 84.017, 250.055 74.075, 250.213 61.629 C 250.371 49.182, 250.414 38.999, 250.309 38.999 C 250.204 39, 249.883 39.381, 249.595 39.846 M 321.575 40.918 C 320.569 42.028, 320.026 43.816, 320.283 45.168 C 320.713 47.422, 320.732 47.415, 320.864 44.950 C 321.105 40.434, 322.482 40, 336.578 40 C 350.654 40, 352.830 40.718, 351.711 44.996 C 351.423 46.100, 351.595 46.751, 352.093 46.442 C 353.522 45.559, 353.153 42.296, 351.429 40.571 C 350.158 39.301, 347.317 39, 336.584 39 C 324.770 39, 323.119 39.211, 321.575 40.918 M 371.667 39.667 C 370.707 40.626, 370.842 90, 371.804 90 C 372.770 90, 379 83.695, 379 82.717 C 379 82.339, 377.437 83.710, 375.527 85.765 L 372.054 89.500 372.027 64.833 C 372.006 46.015, 372.296 40.047, 373.250 39.662 C 373.948 39.381, 374.021 39.123, 373.417 39.079 C 372.821 39.036, 372.033 39.300, 371.667 39.667 M 468.750 39.998 C 469.681 41.043, 470 47.967, 470 67.165 C 470 90.822, 469.855 93.007, 468.224 93.880 C 467.094 94.485, 465.731 94.474, 464.474 93.850 C 462.529 92.884, 462.529 92.893, 464.438 94.432 C 466.099 95.772, 466.669 95.800, 468.438 94.626 C 470.421 93.310, 470.510 92.259, 470.766 67.265 C 471.011 43.405, 470.888 41.162, 469.266 39.934 C 467.761 38.794, 467.685 38.804, 468.750 39.998 M 504 40.591 C 502.306 41.640, 502.145 41.918, 503.500 41.456 C 508.827 39.638, 508.850 39.646, 509.303 43.651 L 509.738 47.500 509.619 43.508 C 509.483 38.961, 507.935 38.157, 504 40.591 M 554.575 40.918 C 553.569 42.028, 553.026 43.816, 553.283 45.168 C 553.713 47.422, 553.732 47.415, 553.864 44.950 C 554.105 40.434, 555.482 40, 569.578 40 C 583.847 40, 585.793 40.678, 584.517 45.202 C 584.013 46.990, 584.102 47.167, 584.919 46 C 586.389 43.900, 586.253 42.396, 584.429 40.571 C 583.158 39.301, 580.317 39, 569.584 39 C 557.770 39, 556.119 39.211, 554.575 40.918 M 604.571 40.571 C 603.225 41.918, 603.002 45.751, 603.015 67.321 C 603.024 81.170, 603.361 92.983, 603.765 93.573 C 605.101 95.524, 607.778 95.885, 609.653 94.366 C 611.423 92.932, 611.418 92.911, 609.526 93.850 C 608.269 94.474, 606.906 94.485, 605.776 93.880 C 604.147 93.008, 604 90.848, 604 67.794 C 604 45.807, 604.207 42.428, 605.655 40.829 C 607.675 38.597, 606.763 38.380, 604.571 40.571 M 639.160 40.307 C 638.025 41.675, 637.329 81.662, 638.421 82.755 C 638.740 83.073, 639 73.898, 639 62.367 C 639 47.393, 639.343 41.057, 640.200 40.200 C 640.860 39.540, 641.140 39, 640.822 39 C 640.505 39, 639.757 39.588, 639.160 40.307 M 643.975 39.658 C 645.250 40.290, 645.367 90.873, 644.098 92.875 C 642.815 94.901, 637.796 94.578, 636.333 92.375 C 635.648 91.344, 634.361 89.600, 633.473 88.500 C 632.274 87.016, 632.327 87.358, 633.679 89.827 C 636.061 94.179, 637.443 95.250, 640.675 95.250 C 645.816 95.250, 646.056 93.852, 645.766 65.620 C 645.560 45.556, 645.211 39.607, 644.225 39.408 C 643.524 39.266, 643.411 39.379, 643.975 39.658 M 673.750 40.572 C 672.237 41.393, 671 42.286, 671 42.558 C 671 42.829, 672.237 42.427, 673.750 41.663 C 675.263 40.899, 677.175 40.023, 678 39.716 C 679.333 39.220, 679.333 39.154, 678 39.119 C 677.175 39.098, 675.263 39.751, 673.750 40.572 M 724.340 39.765 C 723.702 40.169, 729.465 40.353, 737.146 40.173 C 747.636 39.928, 751.532 40.177, 752.805 41.173 C 754.329 42.366, 754.362 42.324, 753.128 40.750 C 751.944 39.240, 749.952 39.002, 738.628 39.015 C 731.407 39.024, 724.978 39.361, 724.340 39.765 M 417.224 65.750 C 417.101 79.638, 417.362 91, 417.804 91 C 418.799 91, 425 84.681, 425 83.668 C 425 83.262, 423.538 84.597, 421.750 86.634 L 418.500 90.337 417.974 65.419 L 417.447 40.500 417.224 65.750 M 462.435 67 C 462.435 81.025, 462.575 86.763, 462.747 79.750 C 462.919 72.738, 462.919 61.263, 462.747 54.250 C 462.575 47.238, 462.435 52.975, 462.435 67 M 703.750 43.851 C 704.987 44.934, 706 46.775, 706 47.943 C 706 49.208, 705.092 50.429, 703.750 50.969 C 702.370 51.524, 702.099 51.898, 703.050 51.937 C 707.500 52.119, 708.367 46.062, 704.250 43.556 L 701.500 41.881 703.750 43.851 M 84.453 47.250 L 80.500 51.500 84.750 47.547 C 88.702 43.871, 89.460 43, 88.703 43 C 88.540 43, 86.627 44.913, 84.453 47.250 M 124.697 47.001 C 127.005 49.475, 129.808 53.525, 130.925 56 C 132.042 58.475, 132.966 59.920, 132.978 59.210 C 133.023 56.592, 129.046 50.386, 124.835 46.501 L 120.500 42.502 124.697 47.001 M 665.758 46.750 C 661.885 50.731, 658.014 58.176, 658.089 61.500 C 658.114 62.600, 658.700 61.700, 659.392 59.500 C 661.232 53.654, 662.808 50.948, 666.821 46.750 C 668.793 44.688, 670.181 43, 669.906 43 C 669.631 43, 667.764 44.688, 665.758 46.750 M 271.408 45.225 C 271.606 46.199, 275.754 46.500, 289 46.500 C 302.246 46.500, 306.394 46.199, 306.592 45.225 C 306.734 44.524, 306.621 44.411, 306.342 44.975 C 305.651 46.367, 272.349 46.367, 271.658 44.975 C 271.379 44.411, 271.266 44.524, 271.408 45.225 M 42.750 46.744 C 47.288 46.929, 54.712 46.929, 59.250 46.744 C 63.788 46.559, 60.075 46.407, 51 46.407 C 41.925 46.407, 38.212 46.559, 42.750 46.744 M 92.150 50.006 C 89.868 51.660, 88 53.304, 88 53.661 C 88 54.018, 88.787 53.614, 89.750 52.764 C 90.713 51.914, 93.075 50.271, 95 49.113 C 96.925 47.955, 98.005 47.006, 97.400 47.004 C 96.795 47.002, 94.433 48.353, 92.150 50.006 M 227.193 55.250 L 227.385 62.500 227.741 56.221 C 227.944 52.641, 228.501 50.192, 229.037 50.523 C 229.554 50.842, 229.709 50.406, 229.382 49.552 C 227.995 45.939, 227.013 48.496, 227.193 55.250 M 616.193 54.750 L 616.385 61.500 616.741 55.221 C 616.983 50.959, 617.452 49.161, 618.203 49.625 C 618.871 50.038, 619.026 49.852, 618.595 49.155 C 616.898 46.408, 616.013 48.468, 616.193 54.750 M 47 72.878 C 47 89.862, 47.269 93.979, 48.445 94.954 C 50.324 96.513, 54.230 95.922, 54.748 94 C 55.070 92.803, 54.962 92.771, 54.213 93.837 C 53.696 94.573, 52.200 95.023, 50.887 94.837 L 48.500 94.500 48.230 73.812 L 47.960 53.123 51.730 52.730 L 55.500 52.336 51.250 52.168 L 47 52 47 72.878 M 285 72.878 C 285 95.340, 285.268 96.525, 290.195 95.827 L 292.500 95.500 292.770 73.750 L 293.039 52 289.020 52 L 285 52 285 72.878 M 286.230 73.750 L 286.500 94.500 289.250 94.816 L 292 95.133 292 74.066 L 292 53 288.980 53 L 285.959 53 286.230 73.750 M 320 73.429 C 320 90.667, 320.245 94.103, 321.571 95.429 C 323.878 97.735, 349.122 97.735, 351.429 95.429 C 353.153 93.704, 353.522 90.441, 352.093 89.558 C 351.595 89.249, 351.423 89.900, 351.711 91.004 C 352.830 95.282, 350.654 96, 336.578 96 C 327.662 96, 323.012 95.612, 322.200 94.800 C 321.347 93.947, 321 87.867, 321 73.800 L 321 54 324.500 54 L 328 54 328 59.464 L 328 64.928 337.750 65.214 C 347.407 65.497, 347.500 65.524, 347.500 68 C 347.500 70.476, 347.407 70.503, 337.750 70.786 L 328 71.072 328 80.036 L 328 89 339.250 88.788 L 350.500 88.575 339.750 88.254 L 329 87.932 329 80.004 L 329 72.075 338.144 71.788 C 345.563 71.554, 347.496 71.170, 348.389 69.750 C 349.190 68.477, 349.190 67.523, 348.389 66.250 C 347.496 64.830, 345.563 64.446, 338.144 64.212 L 329 63.925 329 58.462 L 329 53 324.500 53 L 320 53 320 73.429 M 553 73.429 C 553 90.667, 553.245 94.103, 554.571 95.429 C 556.878 97.735, 582.122 97.735, 584.429 95.429 C 586.253 93.604, 586.389 92.100, 584.919 90 C 584.102 88.833, 584.013 89.010, 584.517 90.798 C 585.793 95.322, 583.847 96, 569.578 96 C 560.662 96, 556.012 95.612, 555.200 94.800 C 554.347 93.947, 554 87.867, 554 73.800 L 554 54 557.500 54 L 561 54 561 59.464 L 561 64.928 570.750 65.214 C 580.407 65.497, 580.500 65.524, 580.500 68 C 580.500 70.476, 580.407 70.503, 570.750 70.786 L 561 71.072 561 80.036 L 561 89 572.250 88.788 L 583.500 88.575 572.750 88.254 L 562 87.932 562 80.004 L 562 72.075 571.144 71.788 C 578.563 71.554, 580.496 71.170, 581.389 69.750 C 582.190 68.477, 582.190 67.523, 581.389 66.250 C 580.496 64.830, 578.563 64.446, 571.144 64.212 L 562 63.925 562 58.462 L 562 53 557.500 53 L 553 53 553 73.429 M 722 73.965 C 722 93.669, 722.116 94.992, 723.934 95.965 C 724.998 96.534, 731.678 97, 738.779 97 C 750.017 97, 751.904 96.763, 753.345 95.171 C 755.466 92.828, 755.430 91.700, 753.171 89.655 C 751.722 88.343, 749.232 88, 741.171 88 L 731 88 731 80.038 L 731 72.075 740.144 71.788 C 747.563 71.554, 749.496 71.170, 750.389 69.750 C 751.190 68.477, 751.190 67.523, 750.389 66.250 C 749.496 64.830, 747.563 64.446, 740.144 64.212 L 731 63.925 731 58.462 L 731 53 726.500 53 L 722 53 722 73.965 M 723 74.393 C 723 92.066, 723.211 94.867, 724.582 95.393 C 725.452 95.727, 731.922 96, 738.959 96 C 749.414 96, 751.996 95.710, 753.070 94.416 C 754.022 93.268, 754.095 92.374, 753.335 91.166 C 752.478 89.804, 750.251 89.448, 741.143 89.217 L 730 88.934 730 80.003 L 730 71.072 739.750 70.786 C 749.407 70.503, 749.500 70.476, 749.500 68 C 749.500 65.524, 749.407 65.497, 739.750 65.214 L 730 64.928 730 59.464 L 730 54 726.500 54 L 723 54 723 74.393 M 85.526 57.950 C 84.687 59.573, 84 61.598, 84 62.450 C 84 63.561, 82.987 64, 80.421 64 C 76.931 64, 76.856 63.919, 77.418 60.750 C 77.856 58.281, 77.772 57.981, 77.068 59.500 C 75.081 63.785, 75.736 65, 80.031 65 C 82.998 65, 84.206 64.538, 84.604 63.250 C 84.902 62.288, 85.781 60.038, 86.557 58.250 C 88.319 54.192, 87.580 53.977, 85.526 57.950 M 494.607 60.582 C 493.760 62.788, 493.875 72.256, 494.765 73.655 C 495.169 74.289, 495.500 71.252, 495.500 66.905 C 495.500 62.557, 495.436 59, 495.357 59 C 495.278 59, 494.941 59.712, 494.607 60.582 M 133 62.440 C 133 63.367, 131.665 64.019, 129.250 64.272 L 125.500 64.664 129.750 64.832 C 133.389 64.976, 134 64.713, 134 63 C 134 61.900, 133.775 61, 133.500 61 C 133.225 61, 133 61.648, 133 62.440 M 627.074 64.500 C 628.309 66.700, 629.749 68.950, 630.274 69.500 C 631.772 71.069, 628.347 64.734, 626.490 62.500 C 625.576 61.400, 625.839 62.300, 627.074 64.500 M 619.074 65.500 C 620.309 67.700, 621.749 69.950, 622.274 70.500 C 623.772 72.069, 620.347 65.734, 618.490 63.500 C 617.576 62.400, 617.839 63.300, 619.074 65.500 M 657.100 66.583 C 657.155 68.188, 657.582 70.625, 658.049 72 C 658.622 73.686, 658.711 72.872, 658.321 69.500 C 657.672 63.875, 656.948 62.147, 657.100 66.583 M 513.571 67.571 C 511.758 69.385, 511.613 70.883, 513.046 73 C 513.811 74.132, 513.915 73.868, 513.466 71.926 C 512.558 67.995, 514.624 67.110, 525.556 66.748 L 535.500 66.419 525.321 66.209 C 517.201 66.042, 514.825 66.318, 513.571 67.571 M 233.074 71.500 C 234.309 73.700, 235.749 75.950, 236.274 76.500 C 237.772 78.069, 234.347 71.734, 232.490 69.500 C 231.576 68.400, 231.839 69.300, 233.074 71.500 M 132.776 72.500 C 132.426 74.150, 131.877 76.400, 131.555 77.500 C 131.234 78.600, 131.675 77.985, 132.536 76.133 C 133.397 74.281, 133.946 72.031, 133.756 71.133 C 133.557 70.189, 133.143 70.765, 132.776 72.500 M 666.040 72.300 C 665.948 74.140, 669.085 78.733, 672.665 81.999 L 676.500 85.497 672.865 81.499 C 670.866 79.299, 668.521 76.150, 667.655 74.500 C 666.789 72.850, 666.062 71.860, 666.040 72.300 M 518.750 74.732 C 521.087 74.943, 524.913 74.943, 527.250 74.732 C 529.587 74.522, 527.675 74.349, 523 74.349 C 518.325 74.349, 516.413 74.522, 518.750 74.732 M 705.768 84.565 C 706.067 86.130, 705.544 87.901, 704.373 89.285 L 702.500 91.500 704.750 89.595 C 706.978 87.709, 707.794 83.609, 706.144 82.589 C 705.674 82.298, 705.504 83.188, 705.768 84.565 M 536.560 84.810 C 535.995 86.590, 531.698 90.025, 526.500 92.852 C 525.400 93.450, 524.985 93.953, 525.579 93.970 C 528.859 94.062, 539.256 84.923, 537.672 83.339 C 537.403 83.070, 536.903 83.732, 536.560 84.810 M 507.975 86.658 C 509.434 87.382, 509.248 93.733, 507.750 94.338 C 507.024 94.631, 507.258 94.875, 508.307 94.921 C 509.821 94.987, 510.065 94.321, 509.807 90.828 C 509.632 88.452, 508.951 86.547, 508.225 86.403 C 507.524 86.264, 507.411 86.379, 507.975 86.658 M 519.199 86.986 C 517.384 87.416, 515.617 88.050, 515.272 88.394 C 514.427 89.239, 521.111 87.941, 523 86.893 C 524.790 85.900, 523.670 85.928, 519.199 86.986 M 680.250 87.080 C 681.275 87.677, 682 89.291, 682 90.976 C 682 92.875, 681.405 94.009, 680.250 94.311 C 678.933 94.655, 679.057 94.797, 680.750 94.884 C 682.718 94.985, 683 94.512, 683 91.107 C 683 88.480, 682.486 87.017, 681.418 86.607 C 678.978 85.671, 678.301 85.945, 680.250 87.080 M 153.703 90.792 C 151.666 92.878, 150 94.903, 150 95.292 C 150 95.681, 155.287 95.910, 161.750 95.801 L 173.500 95.601 162.189 95.051 L 150.878 94.500 154.189 91.298 C 157.217 88.370, 158.141 88.066, 165 87.747 L 172.500 87.397 164.953 87.199 C 157.434 87.001, 157.392 87.014, 153.703 90.792 M 377.683 90.813 C 375.635 92.910, 374.268 94.935, 374.646 95.313 C 375.024 95.691, 380.343 96, 386.467 96 C 398.152 96, 400.086 95.360, 399.900 91.550 C 399.817 89.833, 399.688 89.907, 399.107 92 C 398.422 94.467, 398.254 94.504, 386.478 94.784 L 374.542 95.067 378.021 91.455 L 381.500 87.842 390.157 88.171 C 394.918 88.352, 398.293 88.169, 397.657 87.765 C 397.021 87.361, 393.104 87.024, 388.953 87.015 C 381.520 87, 381.350 87.057, 377.683 90.813 M 424.533 90.966 C 419.730 95.885, 420.301 96.187, 433.571 95.748 L 443.500 95.419 432.554 95.209 L 421.608 95 424.961 91.541 C 428.070 88.333, 428.829 88.056, 435.407 87.739 L 442.500 87.397 435.453 87.199 C 428.460 87.002, 428.376 87.030, 424.533 90.966 M 101.826 91.635 L 102.250 95.270 98.375 94.658 C 95.657 94.230, 95.097 94.318, 96.500 94.953 C 97.600 95.452, 99.513 95.891, 100.750 95.930 C 102.720 95.991, 103 95.502, 103 92 C 103 89.800, 102.640 88, 102.201 88 C 101.761 88, 101.593 89.636, 101.826 91.635 M 108.168 91.750 C 107.988 96.292, 109.115 96.965, 113.500 94.932 C 115.036 94.220, 114.761 94.136, 112.314 94.568 C 109.239 95.111, 109.115 94.998, 108.732 91.315 L 108.336 87.500 108.168 91.750 M 517.500 95 C 514.805 95.686, 514.754 95.765, 517 95.782 C 518.375 95.792, 520.625 95.440, 522 95 C 523.959 94.373, 524.067 94.203, 522.500 94.218 C 521.400 94.228, 519.150 94.580, 517.500 95 M 417.380 120.452 C 417.074 121.251, 417.114 122.376, 417.470 122.952 C 418.417 124.484, 583.189 124.411, 584.722 122.878 C 585.339 122.261, 585.606 121.136, 585.315 120.378 C 584.499 118.252, 418.196 118.325, 417.380 120.452 M 590.667 119.667 C 590.300 120.033, 590.007 120.821, 590.015 121.417 C 590.024 122.051, 590.362 121.978, 590.831 121.239 C 591.468 120.236, 608.728 120.031, 674.816 120.239 C 720.567 120.382, 758 120.162, 758 119.750 C 758 118.824, 591.593 118.741, 590.667 119.667 M 418 121.500 C 418 122.839, 427.523 122.982, 501.250 122.756 C 555.913 122.588, 584.500 122.157, 584.500 121.500 C 584.500 120.843, 555.913 120.412, 501.250 120.244 C 427.523 120.018, 418 120.161, 418 121.500 M 674 123 L 590.500 123.517 673.691 123.759 C 728.335 123.917, 757.094 123.657, 757.500 123 C 757.840 122.450, 757.979 122.109, 757.809 122.241 C 757.639 122.374, 719.925 122.716, 674 123 M 427.228 138.117 C 418.528 142.422, 414.545 153.025, 418.500 161.358 C 420.503 165.580, 427.359 171, 430.697 171 C 434.571 171, 433.728 166.847, 429.379 164.505 C 427.089 163.271, 425.007 161.009, 423.715 158.351 C 421.836 154.484, 421.789 153.841, 423.123 150.337 C 424.061 147.873, 426.060 145.528, 428.786 143.698 C 432.711 141.062, 434.228 137.877, 432.166 136.602 C 431.707 136.319, 429.485 137, 427.228 138.117 M 435.678 136.656 C 434.573 137.761, 434.907 142, 436.099 142 C 436.703 142, 438.725 142.725, 440.591 143.610 C 444.434 145.434, 447.307 144.833, 446.821 142.307 C 446.313 139.670, 437.257 135.077, 435.678 136.656 M 466.500 137.278 C 460.147 139.411, 456.840 143.138, 454.544 150.750 C 453.943 152.742, 454.217 153, 456.933 153 C 459.074 153, 460 152.518, 460 151.404 C 460 148.621, 463.934 144.153, 467.530 142.853 C 470.084 141.930, 471 141.007, 471 139.358 C 471 136.446, 470.149 136.052, 466.500 137.278 M 473.627 136.706 C 473.282 137.051, 473 138.297, 473 139.474 C 473 141.006, 474.121 142.110, 476.939 143.353 C 479.760 144.598, 481.393 146.207, 482.689 149.020 C 484.003 151.871, 485.117 152.955, 486.750 152.974 C 488.116 152.990, 489 152.398, 489 151.468 C 489 148.826, 486.358 143.592, 483.865 141.298 C 481.073 138.728, 474.537 135.796, 473.627 136.706 M 501.690 137.154 C 500.225 137.973, 500 140.024, 500 152.550 C 500 161.517, 500.379 167, 501 167 C 501.550 167, 502.900 166.100, 504 165 C 505.793 163.207, 506 161.667, 506 150.107 C 506 136.656, 505.463 135.042, 501.690 137.154 M 529.250 136.731 C 527.797 137.237, 527.399 168, 528.845 168 C 529.310 168, 530.435 167.177, 531.345 166.171 C 532.714 164.659, 533 161.997, 533 150.778 C 533 137.100, 532.590 135.565, 529.250 136.731 M 553.250 136.662 C 552.563 136.940, 552 138.254, 552 139.583 C 552 141.967, 552.127 142, 561.393 142 C 569.145 142, 570.895 141.716, 571.410 140.373 C 572.644 137.158, 570.133 135.996, 562.128 136.079 C 557.932 136.122, 553.938 136.385, 553.250 136.662 M 596.575 136.758 C 595.548 137.786, 595.968 142, 597.099 142 C 597.703 142, 599.725 142.725, 601.591 143.610 C 607.302 146.320, 610.718 142.827, 605.623 139.488 C 602.723 137.589, 597.362 135.971, 596.575 136.758 M 617.152 136.866 C 616.410 137.346, 615.965 138.586, 616.163 139.620 C 616.485 141.300, 617.673 141.530, 627.332 141.785 L 638.140 142.069 637.820 139.285 L 637.500 136.500 628 136.246 C 622.775 136.106, 617.893 136.385, 617.152 136.866 M 650.250 136.731 C 649.316 137.056, 649 141.449, 649 154.083 L 649 171 651.500 171 L 654 171 654 154.107 C 654 136.997, 653.684 135.533, 650.250 136.731 M 698.565 137.577 C 695.499 140.644, 697.271 141.488, 707.401 141.787 L 717.140 142.074 716.820 139.287 C 716.502 136.520, 716.443 136.498, 708.360 136.211 C 701.849 135.980, 699.889 136.254, 698.565 137.577 M 585.756 139.647 C 580.689 143.252, 577.605 149.804, 578.256 155.579 C 579.067 162.774, 584.636 169.377, 590.961 170.642 C 593.718 171.194, 594 171.010, 594 168.672 C 594 166.715, 593.168 165.699, 590.544 164.454 C 585.805 162.205, 582.638 155.748, 583.980 151.068 C 585.164 146.942, 587.259 144.550, 591.072 142.970 C 593.149 142.110, 594 141.066, 594 139.379 C 594 136.113, 590.565 136.225, 585.756 139.647 M 663.486 138.023 C 662.739 139.231, 670.880 164, 672.023 164 C 672.453 164, 673.303 162.571, 673.911 160.824 C 674.861 158.101, 674.572 156.356, 671.880 148.574 C 670.155 143.583, 668.295 138.938, 667.749 138.250 C 666.546 136.738, 664.352 136.621, 663.486 138.023 M 684.008 138.986 C 682.894 141.066, 679.566 150.441, 675.547 162.814 C 673.580 168.870, 673.415 170.222, 674.586 170.671 C 677.059 171.620, 678.764 170.250, 680 166.320 C 680.661 164.219, 683.011 157.455, 685.223 151.289 C 687.434 145.122, 688.978 139.385, 688.653 138.539 C 687.824 136.378, 685.272 136.624, 684.008 138.986 M 552.462 145.238 C 552.171 145.996, 552.061 151.990, 552.217 158.558 L 552.500 170.500 562 170.500 C 570.833 170.500, 571.500 170.360, 571.500 168.500 C 571.500 166.727, 570.735 166.466, 564.750 166.204 L 558 165.909 558 161.004 L 558 156.100 563.750 155.800 C 568.061 155.575, 569.500 155.125, 569.500 154 C 569.500 152.877, 568.068 152.425, 563.807 152.202 L 558.115 151.904 557.807 148.202 C 557.561 145.236, 557.052 144.436, 555.246 144.180 C 554.002 144.003, 552.754 144.478, 552.462 145.238 M 625 157.500 C 625 171.072, 625.011 171.138, 627.250 170.820 C 629.452 170.507, 629.500 170.220, 629.500 157.500 C 629.500 144.780, 629.452 144.493, 627.250 144.180 C 625.011 143.862, 625 143.928, 625 157.500 M 697.709 144.624 C 696.447 145.886, 696.888 168.488, 698.200 169.800 C 698.952 170.552, 702.689 171, 708.200 171 C 716.920 171, 717 170.977, 717 168.500 C 717 166.071, 716.800 166, 710 166 L 703 166 703 161 L 703 156 708.893 156 C 713.026 156, 714.947 155.581, 715.324 154.598 C 716.159 152.422, 715.114 152, 708.894 152 L 703.121 152 702.810 148.250 C 702.571 145.363, 702.030 144.433, 700.459 144.208 C 699.336 144.047, 698.099 144.235, 697.709 144.624 M 455.045 158.750 C 457.058 164.308, 458.516 166.218, 462.551 168.583 C 467.997 171.774, 471 171.783, 471 168.608 C 471 166.927, 470.297 166.040, 468.633 165.623 C 465.905 164.938, 460 159.252, 460 157.310 C 460 156.524, 458.811 156, 457.025 156 C 454.204 156, 454.101 156.143, 455.045 158.750 M 482.483 159.289 C 481.374 161.055, 478.788 163.400, 476.736 164.500 C 472.260 166.900, 471.386 171, 475.352 171 C 480.125 171, 487.214 164.427, 488.563 158.750 C 489.137 156.337, 488.928 156.005, 486.858 156.039 C 485.313 156.064, 483.805 157.184, 482.483 159.289 M 438.755 164.846 C 436.032 166.049, 435.009 167.114, 435.005 168.750 C 435.001 170.540, 435.562 170.999, 437.750 170.996 C 441.582 170.991, 447 167.487, 447 165.015 C 447 162.531, 444.129 162.473, 438.755 164.846 M 599.755 164.846 C 597.032 166.049, 596.009 167.114, 596.005 168.750 C 596.001 170.540, 596.562 170.999, 598.750 170.996 C 602.582 170.991, 608 167.487, 608 165.015 C 608 162.531, 605.129 162.473, 599.755 164.846 M 504 168.500 L 501.651 171 509.126 171 C 516.652 171, 519.304 169.955, 518.315 167.378 C 517.951 166.430, 516.003 166, 512.067 166 C 507.260 166, 505.974 166.399, 504 168.500 M 532.655 167.829 C 531.745 168.835, 531 169.960, 531 170.329 C 531 170.698, 534.102 171, 537.893 171 C 543.271 171, 544.920 170.651, 545.396 169.410 C 546.414 166.757, 545.126 166, 539.596 166 C 535.745 166, 533.861 166.496, 532.655 167.829 M 420.200 185.200 C 419.372 186.028, 419 191.106, 419 201.578 C 419 217.403, 419.634 219.845, 423.373 218.410 C 424.780 217.870, 425 215.663, 425 202.093 C 425 187.322, 424.449 184, 422 184 C 421.670 184, 420.860 184.540, 420.200 185.200 M 435.690 185.154 C 434.214 185.979, 434 188.109, 434 201.943 C 434 215.652, 434.219 217.870, 435.627 218.410 C 439.392 219.855, 440 217.431, 440 200.985 C 440 184.519, 439.580 182.977, 435.690 185.154 M 456.109 185.369 C 455.538 186.056, 454.943 191.540, 454.786 197.554 L 454.500 208.489 449.031 199.245 C 446.023 194.160, 443.211 190, 442.781 190 C 442.351 190, 442.016 191.912, 442.036 194.250 C 442.064 197.620, 443.254 200.450, 447.786 207.915 C 454.112 218.338, 455.963 220.106, 458.416 218.070 C 460.651 216.215, 460.795 185.519, 458.573 184.666 C 457.788 184.365, 456.679 184.681, 456.109 185.369 M 469.011 185.487 C 468.332 186.305, 468.037 187.655, 468.357 188.487 C 469.246 190.805, 489.517 190.700, 490.410 188.373 C 491.699 185.016, 489.165 184, 479.500 184 C 472.528 184, 469.940 184.367, 469.011 185.487 M 528.529 185.614 C 527.303 186.839, 527 189.907, 527 201.071 C 527 215.743, 527.573 217.339, 531.345 213.171 C 533.661 210.613, 533.822 185.530, 531.529 184.649 C 530.720 184.339, 529.370 184.773, 528.529 185.614 M 556.250 184.667 C 554.798 185.248, 554.400 216, 555.845 216 C 556.310 216, 557.448 215.163, 558.374 214.139 C 559.813 212.549, 560.018 210.270, 559.779 198.471 C 559.508 185.058, 559.115 183.521, 556.250 184.667 M 583.047 185.443 C 582.323 186.316, 582.042 192.181, 582.224 202.634 C 582.487 217.741, 582.596 218.500, 584.500 218.500 C 586.409 218.500, 586.512 217.742, 586.774 201.866 C 587.001 188.076, 586.799 185.137, 585.597 184.676 C 584.799 184.369, 583.652 184.715, 583.047 185.443 M 613 187 C 613 189.379, 613.434 190, 615.096 190 C 616.248 190, 618.448 190.742, 619.984 191.650 C 623.204 193.552, 626.297 192.812, 625.824 190.253 C 625.477 188.377, 617.753 184, 614.788 184 C 613.468 184, 613 184.785, 613 187 M 666.616 185.527 C 665.274 186.869, 665 189.649, 665 201.949 C 665 217.408, 665.650 219.839, 669.397 218.401 C 670.855 217.842, 671.015 215.834, 670.774 201.216 C 670.492 184.181, 669.962 182.181, 666.616 185.527 M 687.200 185.200 C 686.412 185.988, 686 190.187, 686 197.443 L 686 208.486 680.380 199.243 C 677.288 194.159, 674.363 190, 673.880 190 C 673.396 190, 673 191.668, 673 193.706 C 673 196.412, 674.520 199.991, 678.627 206.956 C 685.789 219.105, 687.359 220.498, 690.429 217.429 C 691.715 216.142, 692 213.185, 692 201.129 C 692 187.310, 691.420 184, 689 184 C 688.670 184, 687.860 184.540, 687.200 185.200 M 709 185.121 C 705.806 186.391, 701.225 190.728, 699.411 194.200 C 697.626 197.616, 697.599 204.104, 699.351 208.298 C 702.410 215.619, 713 221.259, 713 215.567 C 713 214.031, 712.279 212.906, 711.044 212.514 C 709.968 212.172, 707.943 210.533, 706.544 208.870 C 702.742 204.352, 702.919 196.928, 706.923 192.923 C 708.531 191.315, 710.556 190, 711.423 190 C 712.509 190, 713 189.065, 713 187 C 713 183.748, 712.749 183.630, 709 185.121 M 716 186.875 C 716 189.289, 716.436 190, 717.919 190 C 718.974 190, 721.205 190.785, 722.876 191.743 C 725.204 193.080, 726.188 193.212, 727.089 192.311 C 729.555 189.845, 725.345 185.619, 719.198 184.390 C 716.147 183.779, 716 183.893, 716 186.875 M 498.667 185.667 C 497.519 186.815, 497.940 189.997, 499.250 190.071 C 505.027 190.397, 516.679 189.697, 517.408 188.979 C 517.950 188.445, 517.800 187.464, 517.035 186.542 C 516.072 185.382, 513.723 185, 507.544 185 C 503.028 185, 499.033 185.300, 498.667 185.667 M 604.241 186.995 C 594.613 192.865, 593.550 206.747, 602.133 214.501 C 609.670 221.310, 613.364 217.120, 606 210.115 C 602.470 206.757, 602 205.772, 602 201.732 C 602 198.265, 602.629 196.406, 604.589 194.077 C 606.013 192.385, 607.813 191, 608.589 191 C 609.490 191, 610 189.916, 610 188 C 610 184.469, 608.743 184.250, 604.241 186.995 M 636.702 185.632 C 636.316 186.018, 636 187.175, 636 188.203 C 636 189.921, 636.791 190.049, 645.750 189.786 C 654.738 189.522, 655.500 189.344, 655.500 187.500 C 655.500 185.668, 654.738 185.476, 646.452 185.215 C 641.475 185.058, 637.087 185.246, 636.702 185.632 M 736.374 186.467 C 735.055 189.904, 736.439 190.457, 745.575 190.148 C 754.871 189.833, 756.672 189.194, 755.664 186.567 C 754.811 184.344, 737.224 184.253, 736.374 186.467 M 476.667 192.667 C 475.833 193.500, 475.781 215.265, 476.607 217.418 C 476.941 218.288, 478.291 219, 479.607 219 L 482 219 482 205.500 C 482 192.024, 481.996 192, 479.667 192 C 478.383 192, 477.033 192.300, 476.667 192.667 M 498 206 L 498 219 507.441 219 C 516.979 219, 518.504 218.478, 517.396 215.590 C 516.920 214.349, 515.271 214, 509.893 214 L 503 214 503 209.550 L 503 205.100 508.740 204.800 C 513.429 204.555, 514.546 204.156, 514.839 202.620 C 515.330 200.040, 513.350 199.033, 507.750 199.015 C 503.142 199, 503 198.910, 503 196 C 503 193.467, 502.611 193, 500.500 193 L 498 193 498 206 M 636.220 205.750 L 636.500 218.500 646 218.500 C 654.833 218.500, 655.500 218.360, 655.500 216.500 C 655.500 214.743, 654.667 214.439, 648.645 214 L 641.789 213.500 641.480 209.297 L 641.171 205.095 646.826 204.797 C 651.432 204.555, 652.547 204.151, 652.839 202.620 C 653.331 200.035, 651.348 199.033, 645.706 199.015 C 642.458 199.005, 640.965 198.597, 641.075 197.750 C 641.540 194.169, 640.899 193, 638.470 193 L 635.940 193 636.220 205.750 M 736.220 205.750 L 736.500 218.500 746.324 218.787 C 756.058 219.072, 756.146 219.053, 755.824 216.787 C 755.528 214.697, 754.917 214.474, 748.750 214.204 L 742 213.909 742 209.504 L 742 205.100 747.750 204.800 C 752.732 204.540, 753.540 204.217, 753.802 202.380 C 754.145 199.981, 751.885 199.036, 745.750 199.014 C 742.253 199.001, 742 198.798, 742 196 C 742 193.327, 741.670 193, 738.970 193 L 735.940 193 736.220 205.750 M 612.278 202.122 C 610.022 204.378, 612.070 206, 617.173 206 C 621.994 206, 622.124 206.077, 621.816 208.750 C 621.560 210.981, 620.699 211.777, 617.250 212.969 C 613.922 214.120, 613 214.933, 613 216.719 C 613 219.263, 613.868 219.442, 619.127 217.982 C 624.704 216.432, 628 212.563, 628 207.564 C 628 205.274, 627.460 202.860, 626.800 202.200 C 625.280 200.680, 613.782 200.618, 612.278 202.122 M 720.250 212.110 C 716.852 213.682, 716 214.594, 716 216.663 C 716 219.046, 716.257 219.200, 719.250 218.613 C 723.498 217.781, 727.500 214.770, 727.500 212.406 C 727.500 209.856, 725.317 209.767, 720.250 212.110 M 531.655 215.829 C 530.745 216.835, 530 217.960, 530 218.329 C 530 218.698, 533.095 219, 536.878 219 C 541.679 219, 544.120 218.560, 544.964 217.544 C 546.989 215.103, 545.163 214, 539.096 214 C 534.761 214, 532.895 214.458, 531.655 215.829 M 559.695 215.785 C 558.763 216.815, 558 217.979, 558 218.373 C 558 218.766, 561.263 218.955, 565.250 218.794 C 571.735 218.531, 572.500 218.289, 572.500 216.500 C 572.500 214.775, 571.735 214.460, 566.945 214.206 C 562.537 213.973, 561.040 214.299, 559.695 215.785 M 614.500 234.386 C 618.275 236.031, 620.392 238.525, 619.439 240.206 C 618.901 241.157, 619.019 241.213, 619.886 240.417 C 620.535 239.822, 620.812 238.673, 620.501 237.864 C 619.845 236.155, 614.811 232.982, 612.846 233.039 C 612.106 233.061, 612.850 233.667, 614.500 234.386 M 631.229 234.171 C 630.424 234.976, 630 238.782, 630 245.200 L 630 255 634.300 255 C 636.665 255, 639.167 255.563, 639.859 256.250 C 640.869 257.252, 640.986 257.153, 640.452 255.750 C 639.956 254.447, 638.655 254, 635.357 254 L 630.928 254 631.214 244.262 C 631.459 235.916, 631.750 234.475, 633.250 234.188 C 634.800 233.892, 635 234.777, 635 241.927 L 635 250 638.378 250 C 640.423 250, 642.277 249.310, 643.079 248.250 C 644.206 246.761, 644.194 246.687, 643.002 247.750 C 642.231 248.438, 640.359 249, 638.842 249 C 636.094 249, 636.083 248.972, 635.792 241.261 C 635.567 235.288, 635.153 233.456, 633.979 233.232 C 633.143 233.072, 631.905 233.495, 631.229 234.171 M 638 236 C 638 238.222, 638.467 239, 639.800 239 C 640.790 239, 642.231 239.563, 643.002 240.250 C 644.194 241.313, 644.206 241.239, 643.079 239.750 C 642.351 238.787, 641.135 238, 640.378 238 C 639.620 238, 639 237.100, 639 236 C 639 232.195, 644.928 234.144, 647.441 238.775 C 648.254 240.274, 648.938 240.903, 648.960 240.173 C 649.029 237.882, 643.324 233, 640.577 233 C 638.380 233, 638 233.443, 638 236 M 673.250 233.689 C 675.373 234.244, 675.605 238, 673.516 238 C 672.699 238, 670.765 239.238, 669.218 240.750 C 667.670 242.262, 667.325 242.742, 668.452 241.817 C 669.578 240.891, 671.737 239.664, 673.250 239.091 C 676.875 237.718, 677.275 232.934, 673.750 233.116 C 672.057 233.203, 671.933 233.345, 673.250 233.689 M 678.184 235.642 C 678.384 237.315, 679.344 238.594, 680.801 239.129 C 682.266 239.666, 682.880 239.615, 682.492 238.987 C 682.156 238.444, 681.234 238, 680.441 238 C 679.642 238, 679 237.061, 679 235.892 C 679 234.103, 679.418 233.880, 681.750 234.422 C 683.790 234.896, 684.113 234.799, 683 234.046 C 682.175 233.487, 680.683 233.024, 679.684 233.015 C 678.304 233.004, 677.943 233.635, 678.184 235.642 M 705.667 233.667 C 705.300 234.033, 705 240.247, 705 247.476 C 705 257.866, 705.326 261.024, 706.555 262.559 C 708.057 264.434, 708.074 264.426, 707.055 262.316 C 706.475 261.114, 706 254.219, 706 246.992 C 706 235.018, 706.155 233.883, 707.750 234.188 C 709.281 234.480, 709.562 236.184, 710 247.834 C 710.425 259.148, 710.763 261.293, 712.250 262.123 C 713.212 262.660, 714 263.977, 714 265.050 C 714 267.296, 713.668 267.386, 710.684 265.945 C 708.563 264.920, 708.557 264.935, 710.460 266.458 C 711.537 267.321, 712.887 267.873, 713.460 267.685 C 715.363 267.060, 715.116 263.415, 713.044 261.540 C 711.199 259.870, 711 258.507, 711 247.545 C 711 239.432, 710.602 235.002, 709.800 234.200 C 708.472 232.872, 706.691 232.642, 705.667 233.667 M 721.493 234.011 C 721.112 234.628, 721.070 235.403, 721.400 235.733 C 721.730 236.063, 722 235.808, 722 235.167 C 722 234.525, 722.698 234, 723.551 234 C 724.896 234, 725.063 235.930, 724.801 248.453 C 724.636 256.402, 724.851 262.554, 725.279 262.124 C 725.708 261.693, 725.933 255.083, 725.779 247.433 C 725.538 235.417, 725.275 233.482, 723.843 233.207 C 722.932 233.032, 721.874 233.394, 721.493 234.011 M 739.200 234.200 C 738.368 235.032, 738 240.251, 738 251.231 C 738 264.440, 738.251 267.159, 739.513 267.643 C 740.345 267.963, 741.695 267.668, 742.513 266.989 C 743.712 265.995, 743.960 263.209, 743.794 252.628 L 743.589 239.500 743.044 252.989 C 742.565 264.862, 742.287 266.518, 740.725 266.817 C 739.074 267.132, 738.969 266.010, 739.225 250.828 L 739.500 234.500 744.500 233.907 L 749.500 233.314 744.950 233.157 C 742.447 233.071, 739.860 233.540, 739.200 234.200 M 665.689 237.250 C 663.884 239.037, 663.553 239.548, 664.954 238.384 C 666.354 237.220, 668.400 235.771, 669.500 235.164 C 670.600 234.557, 670.931 234.047, 670.235 234.030 C 669.540 234.014, 667.494 235.463, 665.689 237.250 M 750.832 234.690 C 751.565 234.982, 753.025 236.634, 754.078 238.361 C 755.131 240.087, 755.994 240.998, 755.996 240.385 C 756.002 238.706, 752.023 233.989, 750.677 234.079 C 749.929 234.129, 749.985 234.352, 750.832 234.690 M 687.656 237.640 C 689.391 239.213, 691.290 241.400, 691.875 242.500 C 692.460 243.600, 692.953 243.998, 692.970 243.385 C 693.015 241.734, 689.166 237.151, 686.672 235.884 C 685.229 235.151, 685.558 235.740, 687.656 237.640 M 600.937 240.081 L 597.500 243.120 601 240.813 C 602.925 239.545, 604.688 238.393, 604.917 238.253 C 605.146 238.114, 605.118 237.784, 604.854 237.521 C 604.590 237.257, 602.828 238.409, 600.937 240.081 M 721.374 247.500 C 721.376 253.550, 721.541 255.896, 721.740 252.713 C 721.939 249.531, 721.937 244.581, 721.736 241.713 C 721.535 238.846, 721.372 241.450, 721.374 247.500 M 745.500 238.738 C 747.150 238.980, 749.175 239.700, 750 240.338 C 751.305 241.349, 751.322 241.273, 750.128 239.750 C 749.280 238.670, 747.558 238.057, 745.628 238.150 L 742.500 238.300 745.500 238.738 M 591.607 244.582 C 590.576 247.268, 590.934 252.907, 592.351 256.298 C 593.741 259.624, 600.202 266, 602.183 266 C 602.795 266, 601.808 264.988, 599.990 263.750 C 594.159 259.781, 592.500 256.609, 592.500 249.427 C 592.500 245.892, 592.436 243, 592.357 243 C 592.278 243, 591.941 243.712, 591.607 244.582 M 596.015 249.583 C 596.024 251.738, 596.425 254.123, 596.908 254.885 C 597.444 255.732, 597.581 254.371, 597.259 251.385 C 596.604 245.293, 595.995 244.411, 596.015 249.583 M 646.198 250.768 C 644.429 253.479, 644.173 254.551, 645.095 255.398 C 645.980 256.212, 646.113 256.179, 645.601 255.271 C 645.220 254.596, 645.910 252.689, 647.133 251.034 C 648.357 249.379, 649.165 247.848, 648.929 247.633 C 648.693 247.417, 647.464 248.828, 646.198 250.768 M 659 248.250 C 659 248.662, 660.350 249, 662 249 C 663.650 249, 665 248.662, 665 248.250 C 665 247.838, 663.650 247.500, 662 247.500 C 660.350 247.500, 659 247.838, 659 248.250 M 607 250.500 C 604.788 253.166, 607.516 255.023, 613.372 254.837 L 618.500 254.674 613 254.087 C 609.039 253.664, 607.500 253.080, 607.500 252 C 607.500 250.806, 608.962 250.500, 614.657 250.500 C 618.593 250.500, 621.604 250.162, 621.348 249.750 C 620.436 248.282, 608.315 248.916, 607 250.500 M 746 252 C 746 253.650, 746.337 255, 746.750 255 C 747.163 255, 747.500 253.650, 747.500 252 C 747.500 250.350, 747.163 249, 746.750 249 C 746.337 249, 746 250.350, 746 252 M 659.079 252.684 C 659.125 253.734, 659.371 253.973, 659.662 253.250 C 660.269 251.746, 663.627 251.584, 664.342 253.025 C 664.621 253.589, 664.737 253.476, 664.598 252.775 C 664.459 252.074, 663.143 251.358, 661.673 251.184 C 659.619 250.940, 659.018 251.288, 659.079 252.684 M 686.537 257.584 C 685.606 259.004, 683.304 260.811, 681.422 261.597 C 679.129 262.555, 678 263.693, 678 265.045 C 678 267.544, 680.281 268.529, 682.689 267.070 C 684.201 266.154, 684.046 266.075, 681.750 266.595 C 679.423 267.121, 679 266.893, 679 265.108 C 679 263.949, 679.614 263, 680.365 263 C 682.147 263, 686.731 259.371, 688.042 256.922 C 689.542 254.118, 688.511 254.572, 686.537 257.584 M 630.198 262.241 C 630.440 266.439, 630.874 267.552, 632.380 267.839 C 634.899 268.318, 635.966 266.368, 635.985 261.250 C 635.999 257.175, 635.874 257, 632.948 257 L 629.895 257 630.198 262.241 M 669.218 260.250 C 670.765 261.762, 672.699 263, 673.516 263 C 674.333 263, 675 263.898, 675 265 C 675 268.494, 670.295 267.207, 664.504 262.128 L 661.507 259.500 664.004 262.345 C 666.908 265.655, 671.033 268, 673.950 268 C 677.272 268, 676.723 263.224, 673.250 261.909 C 671.737 261.336, 669.578 260.109, 668.452 259.183 C 667.325 258.258, 667.670 258.738, 669.218 260.250 M 692 257.965 C 692 258.679, 690.313 260.886, 688.250 262.868 C 686.055 264.978, 685.523 265.815, 686.967 264.887 C 690.071 262.890, 693.587 258.254, 692.683 257.350 C 692.307 256.974, 692 257.251, 692 257.965 M 631 262.573 C 631 266.389, 631.290 267.092, 632.750 266.815 C 634.027 266.573, 634.583 265.335, 634.807 262.241 C 635.077 258.528, 634.859 258, 633.057 258 C 631.281 258, 631 258.624, 631 262.573 M 718.689 261.228 C 716.783 263.221, 716.730 267.090, 718.599 267.705 C 719.203 267.903, 720.778 267.115, 722.099 265.953 L 724.500 263.840 722.027 265.420 C 720.668 266.289, 719.205 267, 718.777 267 C 717.393 267, 717.954 263.708, 719.661 261.823 C 721.885 259.365, 720.992 258.819, 718.689 261.228 M 608.250 261.662 C 607.563 261.940, 607 263.254, 607 264.583 C 607 266.646, 607.476 266.998, 610.250 266.985 C 612.038 266.976, 614.152 266.557, 614.948 266.053 C 615.886 265.460, 614.882 265.340, 612.097 265.714 C 608.293 266.224, 607.838 266.077, 608.154 264.439 C 608.350 263.421, 609.633 262.275, 611.005 261.894 C 612.935 261.357, 613.047 261.195, 611.500 261.179 C 610.400 261.167, 608.938 261.385, 608.250 261.662 M 650 265.333 C 650 267.302, 647.975 267.513, 645.998 265.750 C 644.806 264.687, 644.794 264.761, 645.921 266.250 C 646.649 267.212, 647.879 268, 648.654 268 C 650.191 268, 651.628 265.294, 650.624 264.290 C 650.281 263.947, 650 264.417, 650 265.333 M 591.655 280.750 C 591.400 281.163, 628.230 281.500, 673.500 281.500 C 718.770 281.500, 755.600 281.163, 755.345 280.750 C 755.091 280.337, 718.260 280, 673.500 280 C 628.740 280, 591.909 280.337, 591.655 280.750 M 590.872 284.250 C 592.159 285.891, 597.307 286, 673.563 286 C 718.289 286, 755.091 285.663, 755.346 285.250 C 755.601 284.837, 719.117 284.618, 674.271 284.762 C 609.840 284.968, 592.394 284.759, 591.116 283.762 C 589.680 282.641, 589.653 282.695, 590.872 284.250" stroke="none" fill="#ffffff" fill-rule="evenodd"/><path d="M 34.039 40.928 C 33.471 41.988, 33.279 43.563, 33.611 44.428 C 34.517 46.789, 67.483 46.789, 68.389 44.428 C 68.721 43.563, 68.529 41.988, 67.961 40.928 C 67.009 39.148, 65.707 39, 51 39 C 36.293 39, 34.991 39.148, 34.039 40.928 M 94.572 41.018 C 86.383 44.215, 79.353 52.360, 77.543 60.750 C 76.854 63.942, 76.905 64, 80.421 64 C 83.204 64, 84 63.599, 84 62.196 C 84 59.248, 89.501 51.467, 93.129 49.285 C 94.983 48.170, 97.737 46.966, 99.250 46.609 C 101.599 46.056, 102 45.455, 102 42.481 C 102 38.449, 101.436 38.338, 94.572 41.018 M 109 42.422 C 109 45.468, 109.398 45.976, 112.616 47.038 C 117.490 48.647, 123.613 54.975, 125.101 59.943 C 126.207 63.634, 126.618 64, 129.658 64 C 133.673 64, 133.897 62.584, 130.925 56 C 128.007 49.535, 121.542 43.346, 115.245 40.990 C 112.319 39.896, 109.717 39, 109.462 39 C 109.208 39, 109 40.540, 109 42.422 M 148.035 40.934 C 147.407 42.109, 147 52.008, 147 66.130 L 147 89.392 150.500 86 L 154 82.608 154 61.411 C 154 43.005, 153.792 40.134, 152.418 39.607 C 149.902 38.642, 149.138 38.873, 148.035 40.934 M 190.571 40.571 C 189.225 41.917, 189 45.785, 189 67.536 C 189 92.168, 189.062 92.963, 191.064 94.034 C 192.596 94.854, 193.498 94.832, 194.564 93.947 C 196.489 92.349, 196.710 42.110, 194.800 40.200 C 193.219 38.619, 192.457 38.685, 190.571 40.571 M 216.063 40.938 C 214.089 42.911, 214 44.081, 214 67.965 C 214 91.289, 214.122 92.995, 215.862 93.926 C 217.158 94.620, 218.227 94.554, 219.379 93.711 C 220.860 92.628, 221.007 89.707, 220.767 66.083 C 220.485 38.184, 220.222 36.778, 216.063 40.938 M 250.474 40.250 C 250.220 40.938, 249.897 51.175, 249.756 63 L 249.500 84.500 239 67.044 L 228.500 49.589 228.206 55.647 L 227.912 61.704 237.477 77.539 C 242.737 86.249, 247.144 93.459, 247.270 93.563 C 249.070 95.042, 252.198 94.802, 253.949 93.051 C 255.907 91.093, 256 89.873, 256 66.200 C 256 41.100, 255.712 39, 252.269 39 C 251.536 39, 250.729 39.563, 250.474 40.250 M 272.569 40.326 C 271.301 41.253, 270.963 42.307, 271.445 43.826 C 272.117 45.945, 272.564 46, 289 46 C 305.119 46, 305.894 45.909, 306.515 43.952 C 307.894 39.609, 305.808 39, 289.569 39 C 278.533 39, 273.887 39.362, 272.569 40.326 M 373.250 39.662 C 372.296 40.047, 372.006 46.015, 372.027 64.833 L 372.054 89.500 375.527 85.765 L 379 82.029 379 62.449 C 379 40.086, 378.372 37.596, 373.250 39.662 M 419.250 39.662 C 418.295 40.047, 418.006 46.115, 418.027 65.333 L 418.054 90.500 421.527 86.765 L 425 83.029 425 62.586 C 425 45.335, 424.755 41.898, 423.429 40.571 C 421.789 38.932, 421.316 38.829, 419.250 39.662 M 464.200 40.200 C 463.329 41.071, 463 48.459, 463 67.165 C 463 90.822, 463.145 93.007, 464.776 93.880 C 465.902 94.483, 467.182 94.478, 468.276 93.866 C 469.838 92.991, 470 90.488, 470 67.150 C 470 41.438, 469.697 39, 466.500 39 C 465.895 39, 464.860 39.540, 464.200 40.200 M 515 42.500 C 515 45.684, 515.258 46, 517.859 46 C 519.432 46, 523.166 47.306, 526.158 48.903 C 531.707 51.864, 535 51.715, 535 48.501 C 535 45.489, 523.035 39, 517.480 39 C 515.312 39, 515 39.441, 515 42.500 M 605.688 40.792 C 604.198 42.439, 604 45.607, 604 67.794 C 604 91.285, 604.122 92.995, 605.862 93.926 C 607.158 94.620, 608.227 94.554, 609.379 93.711 C 610.860 92.628, 611.007 89.702, 610.767 66.013 C 610.534 42.939, 610.299 39.488, 608.938 39.226 C 608.080 39.061, 606.617 39.766, 605.688 40.792 M 640.143 40.327 C 639.439 41.176, 638.944 49.202, 638.771 62.577 L 638.500 83.500 628 66.044 L 617.500 48.589 617.207 54.623 L 616.913 60.657 626.490 76.562 C 631.758 85.310, 636.469 92.869, 636.959 93.359 C 638.336 94.736, 643.125 94.412, 644.098 92.875 C 644.577 92.119, 644.976 79.961, 644.985 65.857 C 644.998 43.387, 644.804 40.139, 643.418 39.607 C 641.342 38.810, 641.416 38.794, 640.143 40.327 M 674.500 41.387 C 657.094 49.630, 653.020 72.629, 666.530 86.375 C 670.352 90.263, 676.981 93.937, 680.250 93.978 C 681.530 93.994, 682 93.200, 682 91.020 C 682 88.574, 681.316 87.692, 678.182 86.093 C 668.810 81.312, 663.862 71.773, 665.816 62.253 C 667.206 55.480, 670.973 50.629, 677.056 47.778 C 681.386 45.749, 681.923 45.145, 681.959 42.250 C 682.008 38.344, 681.139 38.243, 674.500 41.387 M 688 41.842 C 688 44.319, 688.545 44.847, 692.250 45.955 C 694.587 46.654, 697.740 48.107, 699.256 49.185 C 700.771 50.263, 702.796 50.995, 703.756 50.812 C 706.198 50.346, 706.571 46.166, 704.330 44.373 C 701.245 41.905, 693.994 39, 690.917 39 C 688.379 39, 688 39.369, 688 41.842 M 322.227 41.173 C 321.552 41.848, 321 43.435, 321 44.700 C 321 46.998, 321.013 47, 336.031 47 C 349.025 47, 351.148 46.778, 351.691 45.364 C 352.036 44.464, 351.861 43.002, 351.302 42.114 C 350.464 40.784, 347.927 40.451, 336.869 40.223 C 327.284 40.026, 323.103 40.297, 322.227 41.173 M 502.537 42.056 C 493.767 46.432, 488.076 55.182, 487.242 65.578 C 486.396 76.111, 492.489 86.632, 502.485 91.900 C 508.008 94.810, 509 94.607, 509 90.567 C 509 87.977, 508.493 86.974, 506.934 86.479 C 503.666 85.442, 498.061 80.040, 495.941 75.885 C 493.400 70.904, 493.400 63.096, 495.941 58.115 C 498.061 53.960, 503.666 48.558, 506.934 47.521 C 508.493 47.026, 509 46.023, 509 43.433 C 509 39.452, 508.130 39.267, 502.537 42.056 M 555.200 41.200 C 554.540 41.860, 554 43.435, 554 44.700 C 554 46.997, 554.017 47, 568.933 47 C 583.104 47, 583.898 46.896, 584.515 44.952 C 585.858 40.721, 583.683 40, 569.578 40 C 560.662 40, 556.012 40.388, 555.200 41.200 M 724.250 40.662 C 723.563 40.940, 723 42.479, 723 44.083 L 723 47 737.933 47 C 752.104 47, 752.898 46.896, 753.515 44.952 C 754.863 40.705, 752.693 39.994, 738.628 40.079 C 731.407 40.122, 724.938 40.385, 724.250 40.662 M 48.230 73.750 L 48.500 94.500 50.887 94.837 C 52.200 95.023, 53.655 94.573, 54.122 93.837 C 54.588 93.102, 54.976 83.612, 54.985 72.750 L 55 53 51.480 53 L 47.959 53 48.230 73.750 M 286.230 73.750 L 286.500 94.500 289.250 94.816 L 292 95.133 292 74.066 L 292 53 288.980 53 L 285.959 53 286.230 73.750 M 321 73.800 C 321 87.867, 321.347 93.947, 322.200 94.800 C 323.012 95.612, 327.662 96, 336.578 96 C 350.448 96, 352.595 95.338, 351.820 91.298 C 351.516 89.709, 350.113 89.467, 339.738 89.218 L 328 88.937 328 80.004 L 328 71.072 337.750 70.786 C 347.407 70.503, 347.500 70.476, 347.500 68 C 347.500 65.524, 347.407 65.497, 337.750 65.214 L 328 64.928 328 59.464 L 328 54 324.500 54 L 321 54 321 73.800 M 554 73.800 C 554 87.867, 554.347 93.947, 555.200 94.800 C 556.012 95.612, 560.662 96, 569.578 96 C 583.683 96, 585.858 95.279, 584.515 91.048 C 583.910 89.141, 583.076 89, 572.433 89 L 561 89 561 80.036 L 561 71.072 570.750 70.786 C 580.407 70.503, 580.500 70.476, 580.500 68 C 580.500 65.524, 580.407 65.497, 570.750 65.214 L 561 64.928 561 59.464 L 561 54 557.500 54 L 554 54 554 73.800 M 723 74.393 C 723 92.066, 723.211 94.867, 724.582 95.393 C 725.452 95.727, 731.922 96, 738.959 96 C 749.414 96, 751.996 95.710, 753.070 94.416 C 754.022 93.268, 754.095 92.374, 753.335 91.166 C 752.478 89.804, 750.251 89.448, 741.143 89.217 L 730 88.934 730 80.003 L 730 71.072 739.750 70.786 C 749.407 70.503, 749.500 70.476, 749.500 68 C 749.500 65.524, 749.407 65.497, 739.750 65.214 L 730 64.928 730 59.464 L 730 54 726.500 54 L 723 54 723 74.393 M 514.040 68.452 C 513.377 69.251, 513.127 70.826, 513.485 71.952 C 514.072 73.803, 514.947 74, 522.567 74 L 531 74 531 78.385 C 531 81.843, 530.524 83.072, 528.750 84.198 C 526.130 85.861, 521.657 87.585, 517.750 88.438 C 515.472 88.935, 515 89.569, 515 92.133 L 515 95.227 519.737 94.517 C 526.865 93.448, 534.166 89.212, 536.715 84.666 C 538.209 82, 538.375 71.570, 536.965 68.934 C 536.044 67.213, 534.789 67, 525.587 67 C 517.766 67, 514.951 67.354, 514.040 68.452 M 77.576 73.750 C 79.310 83.499, 88.518 92.757, 98.250 94.537 C 101.933 95.210, 102 95.167, 102 92.080 C 102 89.962, 101.429 88.759, 100.250 88.390 C 93.275 86.210, 87.841 81.383, 85.045 74.882 C 83.195 70.582, 82.585 70, 79.927 70 C 76.988 70, 76.927 70.098, 77.576 73.750 M 125.975 72.565 C 125.439 73.976, 125 75.572, 125 76.113 C 125 78.148, 114.982 87.054, 112.028 87.644 C 109.359 88.178, 109 88.659, 109 91.704 C 109 95.074, 109.080 95.142, 112.250 94.481 C 120.482 92.765, 128.659 85.383, 131.472 77.128 C 133.630 70.795, 133.463 70, 129.975 70 C 127.649 70, 126.725 70.592, 125.975 72.565 M 697.500 85.029 C 694.750 86.654, 691.487 87.987, 690.250 87.992 C 688.336 87.999, 688 88.536, 688 91.588 L 688 95.176 692.250 94.468 C 697.025 93.673, 702.996 90.915, 704.894 88.628 C 706.518 86.670, 705.942 82.586, 704 82.298 C 703.175 82.175, 700.250 83.404, 697.500 85.029 M 154 91.500 L 150.608 95 162.236 95 C 173.078 95, 173.909 94.861, 174.515 92.952 C 175.703 89.211, 173.393 88, 165.074 88 C 157.608 88, 157.297 88.098, 154 91.500 M 377.967 91.534 L 374.542 95.067 386.521 94.784 C 398.293 94.505, 398.506 94.459, 398.837 92.113 C 399.312 88.754, 397.571 88.033, 388.946 88.015 C 381.604 88, 381.296 88.099, 377.967 91.534 M 425.037 91.462 L 421.608 95 432.835 95 C 442.307 95, 444.161 94.744, 444.691 93.364 C 446.019 89.901, 443.647 88.514, 435.878 88.212 C 428.554 87.928, 428.425 87.966, 425.037 91.462 M 418 121.500 C 418 122.839, 427.523 122.982, 501.250 122.756 C 555.913 122.588, 584.500 122.157, 584.500 121.500 C 584.500 120.843, 555.913 120.412, 501.250 120.244 C 427.523 120.018, 418 120.161, 418 121.500 M 591 121.500 C 591 122.839, 600.523 122.982, 674.250 122.756 C 728.913 122.588, 757.500 122.157, 757.500 121.500 C 757.500 120.843, 728.913 120.412, 674.250 120.244 C 600.523 120.018, 591 120.161, 591 121.500 M 608 235 C 608 236.100, 608.580 237, 609.289 237 C 609.997 237, 612.339 237.898, 614.492 238.996 C 616.976 240.262, 618.756 240.644, 619.361 240.039 C 620.680 238.720, 618.259 236.008, 614.282 234.345 C 609.793 232.468, 608 232.655, 608 235 M 598.999 236.250 C 594.021 239.649, 591.798 244.453, 592.274 250.791 C 592.515 254, 593.461 257.149, 594.678 258.791 C 597.126 262.097, 602.921 266.167, 604.123 265.424 C 605.852 264.355, 604.950 262.083, 602.136 260.421 C 594.111 255.681, 594.033 244.673, 601.985 239.011 C 605.099 236.794, 606.026 234, 603.648 234 C 602.904 234, 600.812 235.012, 598.999 236.250 M 631.667 234.667 C 631.300 235.033, 631 239.533, 631 244.667 L 631 254 635.250 254.007 C 639.416 254.014, 639.570 254.137, 643.030 260.249 C 644.972 263.678, 647.335 266.633, 648.280 266.815 C 650.817 267.304, 650.411 264.785, 647.028 259.047 L 644.056 254.007 646.528 250.364 C 649.371 246.174, 649.629 243.117, 647.490 238.980 C 645.912 235.930, 643.229 234, 640.566 234 C 638.191 234, 638.694 237.391, 641.236 238.513 C 647.234 241.161, 645.111 250, 638.477 250 L 635 250 635 242 C 635 236, 634.667 234, 633.667 234 C 632.933 234, 632.033 234.300, 631.667 234.667 M 667.990 236.250 C 664.322 238.746, 661.503 242.329, 660.515 245.750 C 659.407 249.585, 663.323 248.530, 666.082 244.250 C 667.412 242.188, 669.953 239.825, 671.728 239 C 675.256 237.361, 676.210 234, 673.148 234 C 672.129 234, 669.808 235.012, 667.990 236.250 M 679 235.892 C 679 237.052, 679.642 238, 680.429 238 C 682.442 238, 689 244.403, 689 246.368 C 689 247.438, 689.853 248, 691.475 248 C 693.720 248, 693.859 247.761, 692.974 245.433 C 690.627 239.258, 687.083 235.812, 681.689 234.458 C 679.407 233.885, 679 234.102, 679 235.892 M 706 246.880 C 706 260.891, 706.793 264.129, 710.657 265.890 C 713.875 267.356, 714 267.324, 714 265.050 C 714 263.977, 713.212 262.660, 712.250 262.123 C 710.763 261.293, 710.425 259.148, 710 247.834 C 709.562 236.184, 709.281 234.480, 707.750 234.188 C 706.156 233.883, 706 235.013, 706 246.880 M 721.978 234.750 C 721.966 235.162, 721.853 240.966, 721.728 247.647 C 721.541 257.597, 721.183 260.143, 719.750 261.726 C 717.823 263.853, 717.402 267, 719.045 267 C 719.620 267, 721.195 265.895, 722.545 264.545 C 724.919 262.172, 725 261.625, 725 248.045 C 725 236.227, 724.762 234, 723.500 234 C 722.675 234, 721.990 234.338, 721.978 234.750 M 739.667 234.667 C 739.300 235.033, 739 242.491, 739 251.240 C 739 265.850, 739.143 267.119, 740.750 266.811 C 742.303 266.513, 742.531 264.873, 742.777 252.238 L 743.055 238 745.827 238 C 749.585 238, 751 239.687, 751 244.165 C 751 246.906, 750.456 248.221, 749 249 C 747.900 249.589, 747 250.955, 747 252.035 C 747 254.380, 747.286 254.421, 750.855 252.575 C 753.749 251.078, 756 247.284, 756 243.903 C 756 241.053, 753.318 236.241, 751.055 235.030 C 748.917 233.885, 740.709 233.624, 739.667 234.667 M 607.527 250.956 C 606.284 252.967, 608.161 254, 613.059 254 C 617.595 254, 618 254.195, 618 256.378 C 618 259.275, 616.579 260.541, 612.002 261.723 C 607.634 262.851, 606.547 266, 610.526 266 C 614.096 266, 619.824 263.198, 621.090 260.831 C 621.652 259.782, 621.974 257.028, 621.806 254.712 L 621.500 250.500 614.836 250.206 C 610.962 250.036, 607.902 250.349, 607.527 250.956 M 660.437 254.750 C 661.323 258.478, 664.018 262.047, 667.990 264.750 C 672.156 267.586, 675 267.687, 675 265 C 675 263.900, 674.360 263, 673.577 263 C 671.367 263, 666.396 258.370, 665.008 255.020 C 663.304 250.907, 659.469 250.680, 660.437 254.750 M 688.635 255.332 C 687.170 258.836, 682.680 263, 680.365 263 C 679.614 263, 679 263.949, 679 265.108 C 679 266.898, 679.407 267.115, 681.689 266.542 C 687.361 265.118, 691.244 261.122, 693.040 254.861 C 693.739 252.423, 693.577 252, 691.944 252 C 690.717 252, 689.526 253.199, 688.635 255.332 M 631 262.573 C 631 266.389, 631.290 267.092, 632.750 266.815 C 634.027 266.573, 634.583 265.335, 634.807 262.241 C 635.077 258.528, 634.859 258, 633.057 258 C 631.281 258, 631 258.624, 631 262.573 M 591.450 282.081 C 591.078 282.682, 591.188 283.588, 591.693 284.093 C 592.241 284.641, 625.518 284.908, 674.056 284.756 C 745.670 284.531, 755.500 284.319, 755.500 283 C 755.500 281.681, 745.643 281.469, 673.813 281.244 C 615.547 281.062, 591.932 281.302, 591.450 282.081" stroke="none" fill="#ffffff" fill-rule="evenodd"/></svg>