<svg xmlns="http://www.w3.org/2000/svg" xmlns:xlink="http://www.w3.org/1999/xlink" version="1.1" id="LOGO" x="0px" y="0px" viewBox="0 0 850.4 453.5" style="enable-background:new 0 0 850.4 453.5;" xml:space="preserve"><style type="text/css">
	.st0{fill:#12BAB6;}
	.st1{fill:#2C5564;}
</style><g><path class="st0" d="M835.7,195.6c1.8-0.7,3-2.6,3-4.8c0-2.7-2.1-5.1-4.7-5.1H798c-2.7,0-4.5,2.3-4.5,5.1v4.8H835.7"/><path class="st0" d="M803.5,221.3V205h-10v58.3c0,2.5,2.2,4.1,4.7,4.1h35.9c2.5,0,4.7-2.3,4.7-5c0-2.8-1.9-5-4.7-5h-30.3   c-0.5,0-0.3-0.1-0.3-0.4v-25.1c0-0.3-0.1-1.1,0.3-1.1h25.1c2.6,0,4.7-1.7,4.7-4.4c0-2.8-2-4.4-4.7-4.4h-25.1   C803.3,222.1,803.5,221.6,803.5,221.3"/><path class="st1" d="M807.4,327v-11.1c0-0.7,0.6-1.1,1.2-1.1h7.5c11.2,0,13.7,10,13.7,14.5c0,4.5-2.4,14.8-13.1,15.3v9.9   c13.5-0.5,22.9-11.5,22.9-25.1c0-13.9-9.8-24.6-23.8-24.6h-10.5c-4.8,0-8,4.2-8,9.1v68.9c0,2.6,2.4,4.7,5.1,4.7   c2.3,0,4.2-1.3,4.9-3.2V327z"/><path class="st1" d="M434,427.1c0,2.7,2,4.8,4.6,4.8h396.6c2.6,0,4.6-2.1,4.6-4.8c0-2.8-1.9-4.8-4.6-4.8H438.6   C435.9,422.3,434,424.4,434,427.1"/><path class="st0" d="M586.5,185.7h-36.1c-2.7,0-4.5,2.3-4.5,5.1v4.8h42.3c1.8-0.7,3-2.6,3-4.8C591.2,188.1,589.1,185.7,586.5,185.7   "/><path class="st0" d="M587.3,143.6V70.6c0-2.7-2.1-4.7-4.9-4.7c-2.7,0-4.9,2.1-4.9,4.7v72.9c0,2.6,2.2,4.7,4.9,4.7   C585.2,148.3,587.3,146.3,587.3,143.6"/><path class="st0" d="M591.2,262.5c0-2.8-1.9-5-4.7-5h-30.3c-0.5,0-0.3-0.1-0.3-0.4v-25.1c0-0.3-0.1-1.1,0.3-1.1h25.1   c2.6,0,4.7-1.7,4.7-4.4c0-2.8-1.9-4.4-4.7-4.4h-25.1c-0.4,0-0.3-0.5-0.3-0.8V205h-9.9v58.3c0,2.5,2.2,4.1,4.7,4.1h35.9   C589,267.5,591.2,265.2,591.2,262.5" style=""/><path class="st1" d="M577.8,386.3c0.9-0.9,1.4-2.2,1.4-3.4c0-0.7-0.1-1.3-0.4-2l-15.7-27.5c-0.1-0.2-0.2-0.4-0.2-0.7   c0-0.2,0.1-0.4,0.3-0.5c7.8-4.5,12.6-12.8,12.6-22.7c0-13.9-9.2-24.7-23.8-24.7h-1.2v10h0.8c11.9,0,14.4,9.1,14.4,15   c0,7.2-2.5,15.9-14.4,15.9h-9.4c-0.6,0-1.1-0.7-1.1-1.3v-39.6H539c-4.8,0-7.9,4.2-7.9,9.1v40.7H546v0h5.9c0.6,0,0.9,0.3,1.2,0.8   l16.7,29.5c1,1.6,2.5,2.8,4.3,2.8C575.6,387.7,577,387.2,577.8,386.3"/><path class="st1" d="M541.1,382.8V364h-9.9v18.9c0,2.6,2.2,4.7,5,4.7C538.9,387.5,541.1,385.6,541.1,382.8"/><path class="st0" d="M527.5,143.6V85.2h-9.9v58.3c0,2.6,2.3,4.7,5,4.7C525.4,148.3,527.5,146.3,527.5,143.6" style=""/><path class="st0" d="M521.6,247.4v-16.6c0-3-2.1-5.3-4.8-5.3h-26.6c-2.7,0-4.6,2.2-4.6,5c0,2.7,2,5,4.6,5h21.6c0.3,0,1,0.3,1,0.7   v9.4c0,1.3-0.6,2-1.7,3.2c-4.4,4.4-14,7.8-22.1,7.8c0,0-0.1,0-0.1,0v9.7c9.5,0,17.2-2.7,23-6.8C519.6,254,521.6,250.8,521.6,247.4" style=""/><path class="st1" d="M476.2,303.3c-0.2,0-0.4,0-0.5,0v9.7c0.2,0,0.4,0,0.5,0c7.6,0,14.9,2.6,20.1,7.2c1.2,1,2.3,1.7,3.7,1.7   c2.6,0,4.9-2.4,4.9-4.9c0-1.4-0.8-2.7-1.8-3.6C495.7,307,486.4,303.3,476.2,303.3"/><path class="st1" d="M509,366.6v-16.6c0-3-2.1-5.3-4.8-5.3h-26.6c-2.7,0-4.6,2.2-4.6,5c0,2.7,2,5,4.6,5h21.6c0.3,0,1,0.3,1,0.7v9.4   c0,1.3-0.6,2-1.7,3.2c-4.4,4.4-13.9,7.8-22.1,7.8c-0.2,0-0.4,0-0.7,0v9.6c0.2,0,0.4,0,0.5,0c9.5,0,17.3-2.7,23-6.7   C507,373.2,509,370,509,366.6"/><path class="st1" d="M466.3,384.2v-10.1c-12.5-4.2-21.5-15.9-21.5-29.8c0-13.9,9.1-25.6,21.5-29.8v-10.1   c-17.9,4.4-31.2,20.5-31.2,39.8C435.1,363.7,448.4,379.8,466.3,384.2"/><path class="st0" d="M470.6,74.5c-1.7-1.4-9.6-7.9-23.6-8.5v9.4c6.6,0.5,12.8,2.9,17.8,6.9c1.5,1.4,2.4,1.8,3.9,1.8   c2.7,0,4.9-2.2,4.9-4.9C473.5,77.2,472.1,75.8,470.6,74.5" style=""/><path class="st0" d="M473.5,134.9c0-2.7-2.2-4.9-4.9-4.9c-1.5,0-2.4,0.4-3.9,1.8c-5.1,4.1-11.3,6.5-17.8,6.9v10   c14.1-0.7,22-7.3,23.5-8.7C472.1,138.7,473.5,137.1,473.5,134.9" style=""/><path class="st0" d="M479.5,185.2c-18.2,4.2-31.7,20.5-31.7,40c0,19.5,13.5,35.8,31.7,40v-10c-12.7-4-22.1-15.9-22.1-30   c0-14.1,9.3-26,22.1-30V185.2z" style=""/><path class="st0" d="M515.6,194.1c-7.3-6.2-16.6-10-26.8-10v9.6c7.6,0,14.9,2.6,20,7.2c1.2,1,2.2,1.7,3.7,1.7   c2.6,0,4.9-2.4,4.9-4.9C517.4,196.3,516.7,195,515.6,194.1"/><path class="st0" d="M496.4,71.1c0,2.1,1.3,4.2,3.1,4.8h45.7c1.8-0.7,3.1-2.7,3.1-4.8c0-2.8-1.9-5.1-4.7-5.1h-42.6   C498.4,65.9,496.4,68.2,496.4,71.1"/><path class="st1" d="M686.7,350.2h-9.9c-1.8,13.9-12.5,25-26.2,27.4v9.9C669.8,385,684.9,369.6,686.7,350.2"/><path class="st1" d="M641.2,387.7v-9.9c-14.5-1.8-26-13.2-27.9-27.7h-9.9C605.4,370.2,621.2,385.9,641.2,387.7"/><path class="st1" d="M603.6,340.8h9.9c2.3-13.9,13.6-24.7,27.7-26.4v-9.9C621.7,306.3,606.1,321.5,603.6,340.8"/><path class="st0" d="M628.8,261.2v-60.6c0-0.2,0-0.3,0-0.4v-0.1c0,0,0,0,0,0v-15.1c-0.9-0.4-1.9-0.6-2.9-0.6c-3.9,0-7,3.6-7,7.6   v69.1c0,2.6,2.3,4.6,5,4.6C626.6,265.8,628.8,263.9,628.8,261.2"/><path class="st0" d="M612.8,71.2c0,0.5,0.1,1,0.2,1.4l20.5,58.4l4.7-14.7l-16-47.1c-0.6-1.8-2.4-2.9-4.3-3   C614.7,66.2,612.8,68.7,612.8,71.2"/><path class="st0" d="M664.1,69.2l-16.4,48.1l-9,28.2c0.7,1.5,2.2,2.9,4.4,2.9c2.8,0,4.1-2.2,4.8-3.9l25.4-71.9   c0.1-0.4,0.2-0.9,0.2-1.4c0-2.5-2.1-5-5.2-5C666.5,66.2,664.8,67.4,664.1,69.2"/><path class="st0" d="M675.2,184.5c-2.7,0-4.4,2-4.4,4.6v61.1c0,0.2-0.3,0.3-0.4,0.3c-0.1,0-0.3-0.1-0.5-0.3l-31.8-53.1v18.5   l27.1,45.4c1.5,2.6,3.9,4.7,7.5,4.7c3.7,0,6.8-3.6,6.8-7.5v-69.2C679.7,186.4,678,184.5,675.2,184.5"/><path class="st1" d="M686.5,340.8c-2.4-18.8-17.2-33.6-35.9-36.1v9.9c13.3,2.3,23.8,12.8,26,26.2H686.5z"/><path class="st0" d="M698.4,71.1v4.8h42.2c1.8-0.7,3-2.6,3-4.8c0-2.7-2.1-5.1-4.7-5.1h-36.1C700.2,65.9,698.4,68.3,698.4,71.1"/><path class="st0" d="M743.7,142.8c0-2.8-2-5-4.7-5h-30.3c-0.5,0-0.3-0.1-0.3-0.4v-25.1c0-0.3-0.1-1.1,0.3-1.1h25.1   c2.6,0,4.7-1.7,4.7-4.4c0-2.8-1.9-4.4-4.7-4.4h-25.1c-0.4,0-0.3-0.5-0.3-0.8V85.2h-9.9v58.3c0,2.5,2.2,4.1,4.7,4.1H739   C741.5,147.7,743.7,145.5,743.7,142.8"/><path class="st1" d="M755.4,309.5v53.8c0,6.3-3.8,11.7-9.3,13.9v10.2c10.8-2.4,19.1-11.9,19.1-23.3v-54.6c0-2.7-2.1-4.7-4.9-4.7   C757.6,304.8,755.4,306.8,755.4,309.5"/><path class="st1" d="M736.7,387.6v-10.1c-6.2-1.9-10.4-7.8-10.4-14.8v-53.3c0-2.7-2.1-4.7-4.9-4.7c-2.7,0-4.9,2.1-4.9,4.7v54.3   C716.5,375.7,725.2,385.6,736.7,387.6"/><path class="st0" d="M733.2,265.5v-10.1c-13.5-3.6-24.7-16.9-24.7-30.7c0-15,10.3-27.9,24.7-31.1v-9.9c-19.5,3.5-34.5,20.6-34.5,41   C698.8,245,713.8,262,733.2,265.5"/><path class="st0" d="M766.4,192c-1.6-1.5-9.6-7.9-23.8-8.5v9.4c6.6,0.5,12.9,2.9,17.9,6.9c1.5,1.4,2.4,1.8,3.9,1.8   c2.7,0,4.9-2.2,4.9-4.9C769.3,194.7,767.9,193.3,766.4,192"/><path class="st0" d="M769.3,252.5c0-2.7-2.2-4.9-4.9-4.9c-1.5,0-2.4,0.4-3.9,1.8c-5.1,4.1-11.4,6.5-17.9,7v10   c14.2-0.6,22.1-7.4,23.7-8.7C767.9,256.2,769.3,254.6,769.3,252.5"/><path class="st0" d="M412.7,189.1v72.1c0,2.6,2.1,4.6,4.8,4.6c2.8,0,4.8-1.9,4.8-4.6v-72.1c0-2.7-2-4.6-4.8-4.6   C414.8,184.5,412.7,186.6,412.7,189.1"/><path class="st0" d="M402.9,107.2c0,20.3,15.1,37.4,34.6,40.8v-10.1c-13.6-3.6-24.9-16.9-24.9-30.7c0-15.1,10.3-28,24.9-31.1v-9.9   C418,69.6,402.9,86.8,402.9,107.2" style=""/><path class="st0" d="M352.1,266.3h29.2c2.6,0,4.7-2.3,4.7-5c0-2.8-2-5-4.7-5h-19.2L352.1,266.3z"/><path class="st0" d="M338.5,71.1v4.8h42.3c1.8-0.7,3-2.6,3-4.8c0-2.7-2.1-5.1-4.7-5.1H343C340.3,65.9,338.5,68.3,338.5,71.1" style=""/><path class="st0" d="M383.8,142.8c0-2.8-2-5-4.7-5h-30.3c-0.5,0-0.3-0.1-0.3-0.4v-25.1c0-0.3-0.1-1.1,0.3-1.1h25.1   c2.6,0,4.7-1.7,4.7-4.4c0-2.8-1.9-4.4-4.7-4.4h-25.1c-0.4,0-0.3-0.5-0.3-0.8V85.7h-9.9v57.9c0,2.5,2.2,4.1,4.7,4.1h35.9   C381.6,147.7,383.8,145.5,383.8,142.8"/><path class="st0" d="M345.9,189.2v70.2l10-10v-60.3c0-2.7-2.2-4.7-5-4.7C348.1,184.5,345.9,186.6,345.9,189.2"/><path class="st0" d="M278.4,189.2v68.6l9.9-9.9v-58.7c0-2.7-2.2-4.7-5-4.7C280.7,184.5,278.4,186.6,278.4,189.2" style=""/><path class="st0" d="M278.8,70.5v69.9l9.9-10v-60c0-2.7-2.2-4.7-5-4.7C281.1,65.9,278.8,67.9,278.8,70.5" style=""/><path class="st0" d="M314.3,137.8h-19.5l-9.9,9.9h29.5c2.6,0,4.7-2.3,4.7-5C318.9,139.9,317,137.8,314.3,137.8" style=""/><path class="st0" d="M283.1,266.3c0,0,0.1,0,0.1,0h30.8c2.6,0,4.7-2.3,4.7-5c0-2.8-2-5-4.7-5h-21L283.1,266.3z"/><path class="st0" d="M208.9,185.7c-2.7,0-4.5,2.3-4.5,5.1v4.8h42.3c1.8-0.7,3-2.6,3-4.8c0-2.7-2.1-5.1-4.7-5.1H208.9z"/><path class="st0" d="M211.4,70.5v68l10-9.9v-58c0-2.7-2.2-4.7-5-4.7C213.7,65.9,211.4,67.9,211.4,70.5"/><path class="st0" d="M247,137.8h-21.7l-9.8,9.8c0.2,0,0.5,0.1,0.7,0.1H247c2.6,0,4.7-2.3,4.7-5C251.7,139.9,249.8,137.8,247,137.8"/><path class="st0" d="M204.4,205v58.3c0,2.5,2.2,4.1,4.7,4.1H245c2.5,0,4.7-2.3,4.7-5c0-2.8-1.9-5-4.7-5h-30.3   c-0.5,0-0.3-0.1-0.3-0.4v-25.1c0-0.3-0.1-1.1,0.3-1.1h25.1c2.6,0,4.7-1.7,4.7-4.4c0-2.8-2-4.4-4.7-4.4h-25.1   c-0.4,0-0.3-0.5-0.3-0.8V205H204.4z"/><path class="st0" d="M97.4,102.7h9.9c2-14.1,13.2-25.1,27.2-27v-9.8C115,67.8,99.5,83.2,97.4,102.7"/><path class="st0" d="M180,112h-9.9c-2.1,13.5-12.7,24.3-26.3,26.4v9.8C162.8,146,177.8,131,180,112" style=""/><path class="st0" d="M183.2,189.7c0-2.8-1.9-5.1-4.7-5.1h-42.6c-2.7,0-4.7,2.3-4.7,5.1c0,2.1,1.3,4.2,3.1,4.8h45.7   C181.9,193.8,183.2,191.8,183.2,189.7"/><path class="st0" d="M143.9,65.9v9.8c13.7,2.2,24.4,13.1,26.4,26.9h9.9C178,83.5,163,68.2,143.9,65.9" style=""/><path class="st0" d="M152.4,203.9v58.3c0,2.6,2.3,4.7,5,4.7c2.8,0,5-1.9,5-4.7v-58.3H152.4z"/><path class="st0" d="M97.5,112c2.3,19.3,17.6,34.4,37,36.4v-9.8c-13.9-1.9-25-12.8-27.1-26.6H97.5z"/><path class="st0" d="M67.3,216.5l26.7,44.6c1.5,2.6,3.9,4.7,7.5,4.7c3.8,0,6.8-3.6,6.8-7.5v-69.2c0-2.7-1.6-4.6-4.4-4.6   c-2.7,0-4.4,2-4.4,4.6v61.1c0,0.2-0.3,0.3-0.4,0.3c-0.1,0-0.3-0.1-0.5-0.3L67.3,198V216.5z"/><path class="st0" d="M72.6,74.3c-1.6-1.4-9.3-7.8-22.9-8.7v9.9c6.3,0.6,12.2,3,17,6.8c1.5,1.4,2.4,1.8,3.9,1.8   c2.7,0,4.9-2.2,4.9-4.9C75.6,77.2,74.1,75.6,72.6,74.3"/><path class="st0" d="M75.6,134.9c0-2.7-2.2-4.9-4.9-4.9c-1.5,0-2.4,0.4-3.9,1.8c-4.9,3.9-10.8,6.3-17,6.9v9.8   c13.6-0.9,21.3-7.2,22.8-8.6C74.1,138.6,75.6,137.1,75.6,134.9"/><path class="st0" d="M47.4,192.1v69.1c0,2.6,2.3,4.6,5,4.6c2.8,0,5-1.9,5-4.6v-60.6c0-0.2,0-0.4,0.1-0.4c0,0-0.1,0-0.1,0v-15.1   c-0.9-0.4-1.9-0.6-3-0.6C50.6,184.5,47.4,188.2,47.4,192.1"/><path class="st0" d="M11,189.1v72.1c0,2.6,2.1,4.6,4.8,4.6c2.8,0,4.8-1.9,4.8-4.6v-72.1c0-2.7-2-4.6-4.8-4.6   C13.2,184.5,11,186.6,11,189.1"/><path class="st0" d="M5,107.2c0,20.5,15.5,37.8,35.4,40.9v-10c-13.9-3.3-25.6-16.8-25.6-30.9c0-15.3,10.7-28.4,25.6-31.3v-9.8   C20.4,69.2,5,86.6,5,107.2"/><path class="st1" d="M417.1,26.4c0-2.8-1.9-4.8-4.6-4.8H9.6c-2.7,0-4.6,2-4.6,4.8c0,2.7,2,4.8,4.6,4.8h402.9   C415.1,31.2,417.1,29.1,417.1,26.4" style=""/><path class="st1" d="M844.4,26.4c0-2.8-1.9-4.8-4.6-4.8H437.9c-2.7,0-4.6,2-4.6,4.8c0,2.7,2,4.8,4.6,4.8h401.8   C842.3,31.2,844.4,29.1,844.4,26.4"/></g></svg>