<?xml version="1.0" standalone="no"?>
<!DOCTYPE svg PUBLIC "-//W3C//DTD SVG 20010904//EN"
 "http://www.w3.org/TR/2001/REC-SVG-20010904/DTD/svg10.dtd">
<svg version="1.0" xmlns="http://www.w3.org/2000/svg"
 width="1002.000000pt" height="656.000000pt" viewBox="0 0 1002.000000 656.000000"
 preserveAspectRatio="xMidYMid meet">

<g transform="translate(0.000000,656.000000) scale(0.100000,-0.100000)"
fill="#000000" stroke="none">
<path d="M6038 6070 c-86 -23 -142 -56 -200 -118 -58 -62 -81 -107 -107 -210
-20 -75 -21 -108 -21 -519 0 -396 2 -445 19 -510 l19 -73 -386 0 c-359 0 -392
-2 -462 -21 -91 -25 -79 -25 -170 0 -67 18 -104 21 -345 21 -358 0 -423 -16
-525 -126 -23 -25 -52 -69 -65 -97 -13 -29 -24 -44 -24 -34 -1 29 -30 77 -79
129 -105 113 -167 128 -527 128 -361 0 -422 -15 -529 -130 -25 -27 -51 -60
-57 -73 l-11 -24 -92 61 c-114 77 -213 119 -386 164 l-135 36 -225 0 -225 1
-149 -38 c-298 -75 -495 -206 -634 -421 -62 -95 -96 -180 -134 -332 -28 -113
-32 -146 -32 -264 0 -120 3 -148 31 -252 44 -161 97 -263 190 -359 l45 -46
-39 -7 c-78 -15 -169 -89 -211 -173 -34 -68 -55 -178 -49 -257 7 -91 50 -261
86 -341 90 -198 269 -370 496 -476 94 -44 310 -103 436 -118 244 -31 576 17
785 114 144 66 299 187 383 300 l23 30 31 -40 c198 -256 517 -395 943 -412
338 -14 679 71 888 221 34 24 70 53 80 65 l19 21 22 -49 c29 -61 86 -125 139
-155 23 -13 83 -34 134 -46 93 -22 100 -23 575 -17 518 7 537 8 767 67 139 35
233 75 340 145 66 42 72 44 67 23 -4 -13 -51 -187 -106 -387 -56 -200 -103
-379 -107 -397 -7 -39 20 -161 48 -217 26 -52 93 -123 142 -152 23 -13 78 -33
123 -44 77 -20 108 -21 630 -21 543 0 549 1 640 24 51 13 112 35 135 49 53 31
145 127 181 187 18 32 159 533 476 1690 531 1943 494 1803 487 1858 -5 36 -2
49 18 75 37 49 58 96 77 172 17 63 19 117 19 530 0 413 -2 467 -19 530 -23 89
-52 146 -104 202 -53 58 -111 91 -200 114 -69 18 -135 19 -1572 18 -1408 -1
-1504 -2 -1567 -19z m3083 -320 c48 -26 49 -40 49 -500 l0 -431 -27 21 c-18
13 -57 24 -108 30 -54 7 -545 10 -1490 8 l-1410 -3 -47 -22 -48 -22 0 415 c0
445 2 463 51 498 21 15 152 16 1517 16 1005 0 1500 -3 1513 -10z m-100 -1253
c20 -15 39 -51 39 -73 0 -15 -858 -3165 -863 -3171 -9 -8 -159 -58 -222 -74
-71 -17 -119 -19 -421 -19 -434 0 -545 -17 -661 -100 -24 -17 -43 -27 -43 -21
0 17 932 3395 942 3414 5 10 24 27 41 37 31 19 55 20 602 20 432 -1 574 -4
586 -13z m-1601 -148 c0 -19 -363 -1333 -370 -1342 -4 -4 -26 31 -49 78 -22
48 -50 99 -61 115 -19 26 -19 30 -5 64 9 20 28 85 42 144 22 89 27 129 27 237
0 114 -4 145 -33 255 -44 168 -100 276 -198 381 l-75 79 361 0 c260 0 361 -3
361 -11z m-5399 -27 c141 -38 293 -117 357 -185 l23 -24 -28 -18 c-43 -29
-109 -30 -173 -5 -114 46 -249 82 -360 97 -133 18 -339 12 -460 -12 -104 -21
-128 -19 -168 12 l-35 26 21 18 c37 29 164 77 263 98 130 29 444 24 560 -7z
m1431 -29 c33 -30 23 -64 -34 -111 -88 -73 -139 -94 -230 -94 -99 1 -165 29
-244 104 -67 64 -80 84 -63 104 9 11 59 14 282 14 238 0 273 -2 289 -17z
m1219 7 c17 -10 19 -22 19 -135 0 -123 0 -125 -22 -123 -13 1 -40 -6 -60 -15
l-37 -16 -3 -611 c-2 -438 -6 -613 -14 -618 -6 -4 -15 -22 -19 -39 -3 -18 -11
-35 -16 -39 -5 -3 -17 -23 -26 -45 -8 -21 -19 -39 -23 -39 -4 0 -11 -11 -14
-24 -3 -14 -12 -31 -19 -38 -6 -7 -25 -33 -42 -58 -34 -52 -32 -49 -104 -125
-68 -72 -139 -117 -238 -152 -72 -25 -90 -27 -238 -28 -128 0 -170 4 -210 18
-145 50 -245 231 -172 309 13 14 33 31 45 37 18 10 23 6 46 -34 51 -85 177
-127 320 -105 119 18 187 74 217 177 11 37 16 42 58 54 45 12 99 42 113 64 4
5 15 21 25 34 39 52 42 105 43 698 l0 572 -42 12 c-47 12 -109 52 -152 97 -26
28 -28 35 -24 91 7 96 -9 91 300 91 166 0 277 -4 289 -10z m1404 -14 c112 -22
221 -58 300 -99 80 -42 194 -156 233 -233 59 -117 82 -265 63 -408 -14 -107
-18 -115 -42 -111 -11 2 -25 -5 -34 -18 -19 -28 -19 -32 6 -55 l20 -20 -53
-78 -54 -79 72 -70 c138 -137 197 -314 176 -528 -6 -59 -14 -112 -17 -117 -4
-6 -17 -10 -30 -10 -13 0 -80 -38 -150 -85 -203 -138 -281 -170 -480 -194
-173 -21 -825 -8 -951 19 -27 6 -65 17 -85 26 l-36 16 -6 711 c-5 703 -5 712
15 730 18 15 47 17 287 17 215 0 271 -3 287 -14 17 -13 19 -30 22 -161 l4
-147 146 4 c250 9 322 54 322 204 0 45 5 62 25 86 37 44 41 74 17 124 -30 61
-82 116 -139 144 -97 48 -178 60 -483 71 -157 5 -349 15 -427 21 l-143 11 0
123 c0 106 2 124 18 134 11 7 178 9 522 7 429 -3 519 -6 595 -21z m-4070 -961
c182 -69 360 -169 418 -233 18 -20 18 -21 -9 -39 -18 -12 -46 -18 -79 -18 -52
1 -153 43 -513 216 -116 56 -192 120 -192 161 0 59 3 59 143 3 73 -29 177 -69
232 -90z m-565 -686 c0 -23 -56 -89 -89 -105 -27 -13 -54 -16 -130 -12 -105 5
-147 21 -246 92 l-50 36 258 0 c179 0 257 -3 257 -11z m109 -195 c71 -35 213
-39 290 -8 42 17 38 18 51 -6 8 -15 7 -27 -4 -47 -50 -96 -191 -127 -288 -63
-52 34 -103 102 -94 125 7 18 6 19 45 -1z"/>
<path d="M5673 3089 c-71 -21 -159 -147 -146 -210 12 -61 41 -119 68 -131 25
-11 25 -12 25 -141 l0 -129 189 4 188 3 68 35 c86 44 115 90 115 183 0 48 4
64 25 89 15 18 25 42 25 61 0 47 -54 133 -106 170 -85 59 -125 70 -279 73 -77
2 -155 -1 -172 -7z"/>
</g>
</svg>
